<?xml version="1.0" standalone="yes"?>

<svg version="1.1" viewBox="0.0 0.0 854.5196850393701 379.25984251968504" fill="none" stroke="none" stroke-linecap="square" stroke-miterlimit="10" xmlns="http://www.w3.org/2000/svg" xmlns:xlink="http://www.w3.org/1999/xlink"><clipPath id="p.0"><path d="m0 0l854.5197 0l0 379.25986l-854.5197 0l0 -379.25986z" clip-rule="nonzero"></path></clipPath><g clip-path="url(#p.0)"><path fill="#000000" fill-opacity="0.0" d="m0 0l854.5197 0l0 379.25986l-854.5197 0z" fill-rule="nonzero"></path><path fill="#f3f3f3" d="m300.0 136.0l250.64569 0l0 41.32283l-250.64569 0z" fill-rule="nonzero"></path><path stroke="#000000" stroke-width="1.0" stroke-linejoin="round" stroke-linecap="butt" d="m300.0 136.0l250.64569 0l0 41.32283l-250.64569 0z" fill-rule="nonzero"></path><path fill="#000000" d="m316.40482 162.92l2.34375 -13.515625l3.796875 0.015625q0.78125 0.03125 1.484375 0.265625q0.71875 0.21875 1.25 0.65625q0.53125 0.4375 0.8125 1.09375q0.296875 0.640625 0.21875 1.5q-0.046875 0.5625 -0.265625 1.015625q-0.21875 0.453125 -0.5625 0.8125q-0.328125 0.34375 -0.78125 0.625q-0.4375 0.265625 -0.921875 0.46875q0.484375 0.1875 0.828125 0.515625q0.359375 0.3125 0.59375 0.71875q0.234375 0.40625 0.328125 0.875q0.109375 0.46875 0.0625 0.96875q-0.0625 0.953125 -0.5 1.703125q-0.4375 0.734375 -1.109375 1.25q-0.671875 0.515625 -1.53125 0.78125q-0.84375 0.25 -1.734375 0.25l-4.3125 0zm2.78125 -6.3125l-0.84375 4.859375l2.46875 0.015625q0.5625 -0.015625 1.078125 -0.1875q0.53125 -0.171875 0.953125 -0.484375q0.4375 -0.328125 0.71875 -0.796875q0.28125 -0.46875 0.359375 -1.046875q0.0625 -0.5 -0.0625 -0.921875q-0.109375 -0.421875 -0.375 -0.734375q-0.25 -0.3125 -0.65625 -0.484375q-0.390625 -0.1875 -0.890625 -0.21875l-2.75 0zm0.25 -1.4375l2.21875 0.015625q0.515625 0 1.015625 -0.140625q0.5 -0.15625 0.90625 -0.4375q0.421875 -0.296875 0.6875 -0.703125q0.28125 -0.421875 0.34375 -0.96875q0.0625 -0.515625 -0.078125 -0.890625q-0.140625 -0.375 -0.4375 -0.625q-0.28125 -0.25 -0.6875 -0.375q-0.390625 -0.140625 -0.859375 -0.15625l-2.375 -0.015625l-0.734375 4.296875zm9.9339905 -2.28125l5.0 0l-1.484375 8.546875l3.171875 0l-0.265625 1.484375l-8.15625 0l0.265625 -1.484375l3.296875 0l1.234375 -7.0625l-3.3125 0l0.25 -1.484375zm3.5625 -2.609375q0 -0.453125 0.28125 -0.734375q0.28125 -0.296875 0.71875 -0.3125q0.234375 -0.015625 0.40625 0.0625q0.1875 0.078125 0.3125 0.203125q0.140625 0.125 0.203125 0.3125q0.078125 0.1875 0.078125 0.40625q0 0.453125 -0.28125 0.734375q-0.28125 0.265625 -0.71875 0.28125q-0.4375 0.015625 -0.71875 -0.25q-0.28125 -0.265625 -0.28125 -0.703125zm5.9652405 7.609375q0.078125 -0.625 0.25 -1.25q0.171875 -0.640625 0.453125 -1.21875q0.28125 -0.59375 0.65625 -1.09375q0.390625 -0.5 0.875 -0.859375q0.484375 -0.375 1.09375 -0.578125q0.609375 -0.21875 1.3125 -0.1875q0.75 0.015625 1.40625 0.296875q0.65625 0.265625 1.125 0.890625l0.96875 -5.21875l1.671875 0l-2.484375 14.25l-1.515625 0l0.171875 -1.0625q-0.578125 0.625 -1.296875 0.953125q-0.71875 0.3125 -1.578125 0.296875q-0.65625 -0.015625 -1.171875 -0.234375q-0.5 -0.234375 -0.859375 -0.609375q-0.359375 -0.390625 -0.609375 -0.890625q-0.234375 -0.5 -0.359375 -1.046875q-0.125 -0.546875 -0.15625 -1.125q-0.03125 -0.578125 0.03125 -1.125l0.015625 -0.1875zm1.65625 0.1875q-0.046875 0.375 -0.046875 0.78125q0 0.40625 0.046875 0.8125q0.0625 0.390625 0.1875 0.75q0.140625 0.34375 0.375 0.625q0.234375 0.265625 0.578125 0.4375q0.34375 0.15625 0.8125 0.171875q0.828125 0.015625 1.4375 -0.390625q0.625 -0.40625 1.078125 -1.046875l0.8125 -4.6875q-0.265625 -0.640625 -0.765625 -1.0q-0.5 -0.375 -1.21875 -0.390625q-0.765625 -0.015625 -1.34375 0.3125q-0.578125 0.328125 -0.984375 0.875q-0.390625 0.546875 -0.625 1.21875q-0.234375 0.671875 -0.328125 1.34375l-0.015625 0.1875zm10.7152405 -5.1875l5.0 0l-1.484375 8.546875l3.171875 0l-0.265625 1.484375l-8.15625 0l0.265625 -1.484375l3.296875 0l1.234375 -7.0625l-3.3125 0l0.25 -1.484375zm3.5625 -2.609375q0 -0.453125 0.28125 -0.734375q0.28125 -0.296875 0.71875 -0.3125q0.234375 -0.015625 0.40625 0.0625q0.1875 0.078125 0.3125 0.203125q0.140625 0.125 0.203125 0.3125q0.078125 0.1875 0.078125 0.40625q0 0.453125 -0.28125 0.734375q-0.28125 0.265625 -0.71875 0.28125q-0.4375 0.015625 -0.71875 -0.25q-0.28125 -0.265625 -0.28125 -0.703125zm13.4339905 2.390625q0.4375 0.015625 0.875 0.078125q0.453125 0.046875 0.890625 0.203125l-0.4375 1.671875q-0.4375 -0.109375 -0.890625 -0.171875q-0.4375 -0.0625 -0.890625 -0.078125q-1.171875 0 -2.015625 0.546875q-0.828125 0.546875 -1.390625 1.546875l-1.109375 6.453125l-1.671875 0l1.734375 -10.03125l1.59375 0l-0.28125 1.59375q0.359375 -0.40625 0.75 -0.734375q0.40625 -0.34375 0.84375 -0.578125q0.453125 -0.234375 0.9375 -0.359375q0.5 -0.140625 1.0625 -0.140625zm7.3246155 10.4375q-1.03125 -0.015625 -1.8125 -0.40625q-0.765625 -0.40625 -1.265625 -1.0625q-0.5 -0.671875 -0.71875 -1.53125q-0.21875 -0.859375 -0.140625 -1.828125l0.046875 -0.390625q0.078125 -0.671875 0.296875 -1.3125q0.21875 -0.640625 0.546875 -1.21875q0.34375 -0.59375 0.78125 -1.078125q0.453125 -0.5 1.0 -0.859375q0.5625 -0.359375 1.203125 -0.546875q0.65625 -0.203125 1.359375 -0.171875q1.046875 0.015625 1.75 0.4375q0.71875 0.421875 1.140625 1.109375q0.421875 0.6875 0.5625 1.578125q0.140625 0.875 0.015625 1.796875l-0.125 0.765625l-6.90625 0q-0.078125 0.609375 0.03125 1.203125q0.125 0.578125 0.421875 1.046875q0.296875 0.46875 0.78125 0.75q0.5 0.28125 1.171875 0.3125q0.875 0.015625 1.609375 -0.34375q0.734375 -0.375 1.328125 -0.984375l0.96875 0.8125q-0.34375 0.484375 -0.8125 0.859375q-0.453125 0.359375 -0.984375 0.609375q-0.515625 0.234375 -1.09375 0.34375q-0.578125 0.109375 -1.15625 0.109375zm1.21875 -9.0q-0.65625 -0.03125 -1.171875 0.21875q-0.515625 0.25 -0.921875 0.65625q-0.40625 0.40625 -0.703125 0.9375q-0.296875 0.53125 -0.484375 1.0625l5.234375 0.015625l0.03125 -0.171875q0.078125 -0.5 -0.015625 -0.984375q-0.078125 -0.484375 -0.34375 -0.859375q-0.265625 -0.390625 -0.671875 -0.625q-0.40625 -0.234375 -0.953125 -0.25zm9.6527405 7.609375q0.46875 0.015625 0.90625 -0.109375q0.453125 -0.140625 0.8125 -0.390625q0.359375 -0.265625 0.625 -0.625q0.265625 -0.375 0.359375 -0.828125l1.59375 0q-0.09375 0.765625 -0.515625 1.390625q-0.40625 0.625 -1.015625 1.0625q-0.609375 0.4375 -1.359375 0.6875q-0.734375 0.234375 -1.46875 0.203125q-1.0625 -0.015625 -1.8125 -0.4375q-0.734375 -0.4375 -1.1875 -1.125q-0.453125 -0.6875 -0.625 -1.578125q-0.171875 -0.890625 -0.078125 -1.84375l0.046875 -0.40625q0.09375 -0.671875 0.296875 -1.3125q0.21875 -0.640625 0.546875 -1.203125q0.328125 -0.5625 0.765625 -1.03125q0.453125 -0.46875 1.0 -0.796875q0.546875 -0.34375 1.1875 -0.515625q0.640625 -0.1875 1.359375 -0.15625q0.78125 0.015625 1.4375 0.296875q0.65625 0.265625 1.125 0.75q0.46875 0.484375 0.71875 1.15625q0.25 0.65625 0.21875 1.4375l-1.578125 -0.015625q0.015625 -0.453125 -0.125 -0.84375q-0.125 -0.40625 -0.390625 -0.703125q-0.25 -0.3125 -0.640625 -0.484375q-0.375 -0.171875 -0.859375 -0.203125q-0.765625 -0.015625 -1.359375 0.296875q-0.59375 0.296875 -1.015625 0.828125q-0.40625 0.515625 -0.671875 1.171875q-0.25 0.65625 -0.34375 1.328125l-0.046875 0.390625q-0.046875 0.40625 -0.046875 0.828125q0 0.40625 0.0625 0.8125q0.078125 0.390625 0.21875 0.75q0.15625 0.359375 0.40625 0.625q0.25 0.25 0.609375 0.421875q0.359375 0.171875 0.84375 0.171875zm12.7308655 -11.265625l-0.421875 2.4375l3.703125 0l-0.234375 1.3125l-3.703125 0l-0.90625 5.46875q-0.046875 0.40625 0 0.765625q0.046875 0.34375 0.203125 0.609375q0.15625 0.265625 0.453125 0.421875q0.296875 0.15625 0.734375 0.15625q0.515625 0.03125 1.015625 -0.0625q0.515625 -0.09375 1.015625 -0.203125l0.15625 1.234375q-0.59375 0.3125 -1.3125 0.40625q-0.703125 0.109375 -1.359375 0.09375q-0.75 0 -1.28125 -0.28125q-0.515625 -0.296875 -0.828125 -0.765625q-0.3125 -0.46875 -0.4375 -1.078125q-0.109375 -0.609375 -0.046875 -1.296875l0.90625 -5.46875l-2.5625 0l0.234375 -1.3125l2.5625 0l0.421875 -2.4375l1.6875 0zm6.8246155 2.4375l5.0 0l-1.484375 8.546875l3.171875 0l-0.265625 1.484375l-8.15625 0l0.265625 -1.484375l3.296875 0l1.234375 -7.0625l-3.3125 0l0.25 -1.484375zm3.5625 -2.609375q0 -0.453125 0.28125 -0.734375q0.28125 -0.296875 0.71875 -0.3125q0.234375 -0.015625 0.40625 0.0625q0.1875 0.078125 0.3125 0.203125q0.140625 0.125 0.203125 0.3125q0.078125 0.1875 0.078125 0.40625q0 0.453125 -0.28125 0.734375q-0.28125 0.265625 -0.71875 0.28125q-0.4375 0.015625 -0.71875 -0.25q-0.28125 -0.265625 -0.28125 -0.703125zm5.8089905 7.59375q0.09375 -0.671875 0.296875 -1.328125q0.203125 -0.65625 0.53125 -1.234375q0.328125 -0.578125 0.765625 -1.0625q0.4375 -0.5 0.984375 -0.84375q0.546875 -0.34375 1.1875 -0.53125q0.640625 -0.203125 1.390625 -0.171875q1.0625 0.015625 1.796875 0.46875q0.75 0.4375 1.203125 1.15625q0.453125 0.703125 0.625 1.609375q0.171875 0.890625 0.078125 1.84375l-0.015625 0.21875q-0.140625 1.0 -0.5625 1.9375q-0.40625 0.9375 -1.0625 1.65625q-0.65625 0.703125 -1.546875 1.125q-0.890625 0.421875 -2.0 0.390625q-1.046875 -0.03125 -1.796875 -0.453125q-0.734375 -0.4375 -1.1875 -1.140625q-0.453125 -0.703125 -0.640625 -1.59375q-0.171875 -0.890625 -0.0625 -1.84375l0.015625 -0.203125zm1.65625 0.203125q-0.046875 0.390625 -0.046875 0.8125q0.015625 0.40625 0.078125 0.8125q0.078125 0.390625 0.21875 0.765625q0.15625 0.359375 0.40625 0.640625q0.25 0.265625 0.59375 0.4375q0.359375 0.15625 0.84375 0.171875q0.765625 0.03125 1.359375 -0.296875q0.59375 -0.34375 1.015625 -0.875q0.4375 -0.53125 0.6875 -1.203125q0.25 -0.6875 0.34375 -1.34375l0.015625 -0.203125q0.0625 -0.59375 0.015625 -1.234375q-0.03125 -0.640625 -0.265625 -1.171875q-0.234375 -0.546875 -0.6875 -0.90625q-0.4375 -0.359375 -1.15625 -0.390625q-0.78125 -0.015625 -1.375 0.328125q-0.59375 0.328125 -1.015625 0.875q-0.40625 0.546875 -0.65625 1.234375q-0.25 0.671875 -0.34375 1.34375l-0.03125 0.203125zm12.1058655 -5.203125l-0.203125 1.5q0.296875 -0.375 0.65625 -0.6875q0.359375 -0.328125 0.765625 -0.546875q0.421875 -0.21875 0.875 -0.328125q0.453125 -0.125 0.953125 -0.109375q0.84375 0.015625 1.421875 0.328125q0.578125 0.3125 0.90625 0.84375q0.34375 0.515625 0.453125 1.21875q0.125 0.6875 0.03125 1.453125l-1.0625 6.375l-1.671875 0l1.0625 -6.34375q0.0625 -0.515625 0 -0.953125q-0.046875 -0.4375 -0.25 -0.75q-0.1875 -0.328125 -0.5625 -0.515625q-0.359375 -0.203125 -0.90625 -0.203125q-0.4375 -0.015625 -0.84375 0.109375q-0.390625 0.109375 -0.734375 0.328125q-0.34375 0.203125 -0.640625 0.5q-0.296875 0.28125 -0.546875 0.625l-1.265625 7.203125l-1.671875 0l1.75 -10.03125l1.484375 -0.015625zm14.2152405 10.046875q-0.078125 -0.28125 -0.078125 -0.546875q0 -0.265625 0.03125 -0.546875q-0.65625 0.578125 -1.4375 0.9375q-0.78125 0.34375 -1.671875 0.328125q-0.640625 0 -1.203125 -0.203125q-0.546875 -0.203125 -0.96875 -0.578125q-0.40625 -0.375 -0.640625 -0.90625q-0.21875 -0.53125 -0.1875 -1.1875q0.03125 -0.65625 0.25 -1.15625q0.234375 -0.5 0.59375 -0.875q0.375 -0.375 0.84375 -0.625q0.46875 -0.265625 1.0 -0.421875q0.546875 -0.171875 1.109375 -0.234375q0.578125 -0.078125 1.125 -0.078125l1.921875 0l0.109375 -0.796875q0.0625 -0.46875 -0.0625 -0.828125q-0.125 -0.359375 -0.390625 -0.609375q-0.25 -0.25 -0.640625 -0.375q-0.375 -0.140625 -0.828125 -0.140625q-0.390625 -0.015625 -0.78125 0.078125q-0.375 0.09375 -0.703125 0.296875q-0.3125 0.1875 -0.546875 0.484375q-0.234375 0.296875 -0.328125 0.71875l-1.671875 0.015625q0.078125 -0.765625 0.484375 -1.328125q0.40625 -0.5625 1.0 -0.921875q0.609375 -0.375 1.3125 -0.5625q0.71875 -0.1875 1.40625 -0.171875q0.765625 0.015625 1.421875 0.25q0.65625 0.21875 1.125 0.65625q0.46875 0.421875 0.703125 1.046875q0.25 0.625 0.171875 1.421875l-0.78125 4.671875q-0.09375 0.515625 -0.09375 1.03125q0 0.5 0.109375 1.0l-0.015625 0.15625l-1.6875 0zm-2.828125 -1.296875q0.890625 0.015625 1.65625 -0.40625q0.765625 -0.421875 1.28125 -1.125l0.375 -2.046875l-1.453125 0q-0.5 0 -1.078125 0.0625q-0.578125 0.0625 -1.09375 0.265625q-0.515625 0.203125 -0.875 0.59375q-0.359375 0.375 -0.4375 1.0q-0.046875 0.390625 0.046875 0.703125q0.109375 0.296875 0.328125 0.515625q0.234375 0.203125 0.546875 0.3125q0.3125 0.109375 0.703125 0.125zm10.0121155 -12.953125l5.0 0l-2.21875 12.765625l3.171875 0l-0.265625 1.484375l-8.15625 0l0.265625 -1.484375l3.296875 0l1.96875 -11.265625l-3.328125 0l0.265625 -1.5zm12.3558655 0.734375l0.96875 6.75l3.46875 -6.75l2.109375 0l-2.34375 13.515625l-1.625 0l0.9375 -5.46875l1.078125 -5.40625l-3.609375 7.125l-0.96875 0l-1.0 -7.171875l-0.84375 5.609375l-0.90625 5.3125l-1.640625 0l2.34375 -13.515625l2.03125 0zm13.3089905 13.515625q-0.078125 -0.28125 -0.078125 -0.546875q0 -0.265625 0.03125 -0.546875q-0.65625 0.578125 -1.4375 0.9375q-0.78125 0.34375 -1.671875 0.328125q-0.640625 0 -1.203125 -0.203125q-0.546875 -0.203125 -0.96875 -0.578125q-0.40625 -0.375 -0.640625 -0.90625q-0.21875 -0.53125 -0.1875 -1.1875q0.03125 -0.65625 0.25 -1.15625q0.234375 -0.5 0.59375 -0.875q0.375 -0.375 0.84375 -0.625q0.46875 -0.265625 1.0 -0.421875q0.546875 -0.171875 1.109375 -0.234375q0.578125 -0.078125 1.125 -0.078125l1.921875 0l0.109375 -0.796875q0.0625 -0.46875 -0.0625 -0.828125q-0.125 -0.359375 -0.390625 -0.609375q-0.25 -0.25 -0.640625 -0.375q-0.375 -0.140625 -0.828125 -0.140625q-0.390625 -0.015625 -0.78125 0.078125q-0.375 0.09375 -0.703125 0.296875q-0.3125 0.1875 -0.546875 0.484375q-0.234375 0.296875 -0.328125 0.71875l-1.671875 0.015625q0.078125 -0.765625 0.484375 -1.328125q0.40625 -0.5625 1.0 -0.921875q0.609375 -0.375 1.3125 -0.5625q0.71875 -0.1875 1.40625 -0.171875q0.765625 0.015625 1.421875 0.25q0.65625 0.21875 1.125 0.65625q0.46875 0.421875 0.703125 1.046875q0.25 0.625 0.171875 1.421875l-0.78125 4.671875q-0.09375 0.515625 -0.09375 1.03125q0 0.5 0.109375 1.0l-0.015625 0.15625l-1.6875 0zm-2.828125 -1.296875q0.890625 0.015625 1.65625 -0.40625q0.765625 -0.421875 1.28125 -1.125l0.375 -2.046875l-1.453125 0q-0.5 0 -1.078125 0.0625q-0.578125 0.0625 -1.09375 0.265625q-0.515625 0.203125 -0.875 0.59375q-0.359375 0.375 -0.4375 1.0q-0.046875 0.390625 0.046875 0.703125q0.109375 0.296875 0.328125 0.515625q0.234375 0.203125 0.546875 0.3125q0.3125 0.109375 0.703125 0.125zm16.355865 -3.671875q-0.109375 0.921875 -0.4375 1.859375q-0.328125 0.921875 -0.890625 1.671875q-0.5625 0.734375 -1.375 1.203125q-0.796875 0.453125 -1.859375 0.421875q-0.765625 -0.015625 -1.453125 -0.28125q-0.671875 -0.28125 -1.15625 -0.875l-0.90625 4.828125l-1.671875 0l2.40625 -13.890625l1.515625 -0.015625l-0.171875 1.109375q0.59375 -0.640625 1.3125 -0.96875q0.734375 -0.34375 1.609375 -0.3125q0.6875 0.015625 1.1875 0.234375q0.515625 0.21875 0.875 0.59375q0.375 0.375 0.59375 0.875q0.234375 0.484375 0.34375 1.046875q0.125 0.5625 0.140625 1.15625q0.03125 0.578125 -0.046875 1.140625l-0.015625 0.203125zm-1.65625 -0.203125q0.0625 -0.5625 0.03125 -1.1875q-0.03125 -0.625 -0.25 -1.15625q-0.203125 -0.53125 -0.640625 -0.875q-0.421875 -0.359375 -1.140625 -0.375q-0.796875 -0.015625 -1.40625 0.375q-0.59375 0.375 -1.0625 0.984375l-0.84375 4.859375q0.5625 1.296875 1.984375 1.34375q0.78125 0.015625 1.359375 -0.3125q0.578125 -0.34375 0.984375 -0.890625q0.40625 -0.546875 0.640625 -1.21875q0.234375 -0.6875 0.328125 -1.34375l0.015625 -0.203125zm12.6058655 0.203125q-0.109375 0.921875 -0.4375 1.859375q-0.328125 0.921875 -0.890625 1.671875q-0.5625 0.734375 -1.375 1.203125q-0.796875 0.453125 -1.859375 0.421875q-0.765625 -0.015625 -1.453125 -0.28125q-0.671875 -0.28125 -1.15625 -0.875l-0.90625 4.828125l-1.671875 0l2.40625 -13.890625l1.515625 -0.015625l-0.171875 1.109375q0.59375 -0.640625 1.3125 -0.96875q0.734375 -0.34375 1.609375 -0.3125q0.6875 0.015625 1.1875 0.234375q0.515625 0.21875 0.875 0.59375q0.375 0.375 0.59375 0.875q0.234375 0.484375 0.34375 1.046875q0.125 0.5625 0.140625 1.15625q0.03125 0.578125 -0.046875 1.140625l-0.015625 0.203125zm-1.65625 -0.203125q0.0625 -0.5625 0.03125 -1.1875q-0.03125 -0.625 -0.25 -1.15625q-0.203125 -0.53125 -0.640625 -0.875q-0.421875 -0.359375 -1.140625 -0.375q-0.796875 -0.015625 -1.40625 0.375q-0.59375 0.375 -1.0625 0.984375l-0.84375 4.859375q0.5625 1.296875 1.984375 1.34375q0.78125 0.015625 1.359375 -0.3125q0.578125 -0.34375 0.984375 -0.890625q0.40625 -0.546875 0.640625 -1.21875q0.234375 -0.6875 0.328125 -1.34375l0.015625 -0.203125zm5.5277405 -4.859375l5.0 0l-1.484375 8.546875l3.171875 0l-0.265625 1.484375l-8.15625 0l0.265625 -1.484375l3.296875 0l1.234375 -7.0625l-3.3125 0l0.25 -1.484375zm3.5625 -2.609375q0 -0.453125 0.28125 -0.734375q0.28125 -0.296875 0.71875 -0.3125q0.234375 -0.015625 0.40625 0.0625q0.1875 0.078125 0.3125 0.203125q0.140625 0.125 0.203125 0.3125q0.078125 0.1875 0.078125 0.40625q0 0.453125 -0.28125 0.734375q-0.28125 0.265625 -0.71875 0.28125q-0.4375 0.015625 -0.71875 -0.25q-0.28125 -0.265625 -0.28125 -0.703125zm8.621521 2.59375l-0.203125 1.5q0.296875 -0.375 0.65625 -0.6875q0.359375 -0.328125 0.765625 -0.546875q0.421875 -0.21875 0.875 -0.328125q0.453125 -0.125 0.953125 -0.109375q0.84375 0.015625 1.421875 0.328125q0.578125 0.3125 0.90625 0.84375q0.34375 0.515625 0.453125 1.21875q0.125 0.6875 0.03125 1.453125l-1.0625 6.375l-1.671875 0l1.0625 -6.34375q0.0625 -0.515625 0 -0.953125q-0.046875 -0.4375 -0.25 -0.75q-0.1875 -0.328125 -0.5625 -0.515625q-0.359375 -0.203125 -0.90625 -0.203125q-0.4375 -0.015625 -0.84375 0.109375q-0.390625 0.109375 -0.734375 0.328125q-0.34375 0.203125 -0.640625 0.5q-0.296875 0.28125 -0.546875 0.625l-1.265625 7.203125l-1.671875 0l1.75 -10.03125l1.484375 -0.015625zm8.293335 5.015625q0.09375 -0.625 0.265625 -1.265625q0.171875 -0.640625 0.4375 -1.21875q0.28125 -0.578125 0.65625 -1.078125q0.375 -0.5 0.859375 -0.875q0.5 -0.375 1.09375 -0.578125q0.609375 -0.203125 1.328125 -0.1875q0.796875 0.015625 1.46875 0.328125q0.671875 0.3125 1.109375 0.96875l0.328125 -1.09375l1.546875 0l-1.671875 9.8125q-0.125 0.9375 -0.53125 1.71875q-0.390625 0.78125 -1.015625 1.328125q-0.609375 0.5625 -1.421875 0.859375q-0.8125 0.296875 -1.78125 0.28125q-0.5 -0.015625 -1.0 -0.140625q-0.484375 -0.109375 -0.9375 -0.34375q-0.4375 -0.21875 -0.828125 -0.546875q-0.375 -0.3125 -0.65625 -0.734375l0.953125 -1.03125q0.4375 0.625 1.03125 1.0q0.59375 0.375 1.375 0.390625q0.640625 0.015625 1.15625 -0.171875q0.53125 -0.1875 0.921875 -0.546875q0.40625 -0.34375 0.671875 -0.859375q0.265625 -0.5 0.375 -1.09375l0.1875 -0.890625q-0.578125 0.59375 -1.28125 0.90625q-0.6875 0.296875 -1.53125 0.28125q-0.65625 -0.015625 -1.171875 -0.234375q-0.5 -0.234375 -0.875 -0.609375q-0.359375 -0.390625 -0.59375 -0.875q-0.234375 -0.5 -0.359375 -1.046875q-0.125 -0.5625 -0.15625 -1.140625q-0.03125 -0.578125 0.03125 -1.125l0.015625 -0.1875zm1.65625 0.1875q-0.046875 0.375 -0.046875 0.78125q0 0.40625 0.046875 0.796875q0.0625 0.390625 0.1875 0.75q0.140625 0.359375 0.375 0.640625q0.234375 0.265625 0.578125 0.4375q0.34375 0.15625 0.8125 0.171875q0.84375 0.015625 1.453125 -0.390625q0.625 -0.40625 1.078125 -1.078125l0.796875 -4.625q-0.265625 -0.65625 -0.765625 -1.03125q-0.484375 -0.375 -1.21875 -0.390625q-0.765625 -0.015625 -1.34375 0.3125q-0.578125 0.328125 -0.96875 0.875q-0.390625 0.546875 -0.625 1.21875q-0.234375 0.671875 -0.328125 1.34375l-0.03125 0.1875z" fill-rule="nonzero"></path><path fill="#ffffff" d="m97.35433 221.33858l249.32281 0l0 41.32283l-249.32281 0z" fill-rule="nonzero"></path><path stroke="#000000" stroke-width="1.0" stroke-linejoin="round" stroke-linecap="butt" d="m97.35433 221.33858l249.32281 0l0 41.32283l-249.32281 0z" fill-rule="nonzero"></path><path fill="#000000" d="m198.55403 243.35233q0 1.078125 -0.265625 2.015625q-0.25 0.921875 -0.765625 1.609375q-0.5 0.6875 -1.234375 1.078125q-0.734375 0.390625 -1.6875 0.390625q-0.96875 0 -1.6875 -0.34375q-0.703125 -0.34375 -1.203125 -0.984375l-0.078125 1.140625l-1.578125 0l0 -14.25l1.71875 0l0 5.28125q0.484375 -0.609375 1.171875 -0.921875q0.703125 -0.328125 1.640625 -0.328125q0.953125 0 1.6875 0.375q0.75 0.375 1.25 1.0625q0.515625 0.671875 0.765625 1.625q0.265625 0.9375 0.265625 2.046875l0 0.203125zm-1.71875 -0.203125q0 -0.71875 -0.140625 -1.375q-0.140625 -0.671875 -0.46875 -1.171875q-0.3125 -0.515625 -0.828125 -0.8125q-0.5 -0.296875 -1.25 -0.296875q-0.4375 0 -0.8125 0.125q-0.375 0.109375 -0.671875 0.3125q-0.28125 0.203125 -0.515625 0.5q-0.21875 0.28125 -0.375 0.609375l0 4.390625q0.15625 0.328125 0.390625 0.609375q0.234375 0.28125 0.53125 0.5q0.296875 0.21875 0.65625 0.34375q0.375 0.109375 0.828125 0.109375q0.703125 0 1.203125 -0.296875q0.5 -0.296875 0.8125 -0.796875q0.328125 -0.5 0.484375 -1.15625q0.15625 -0.65625 0.15625 -1.390625l0 -0.203125zm4.679947 -4.921875l5.125 0l0 8.546875l3.265625 0l0 1.484375l-8.390625 0l0 -1.484375l3.40625 0l0 -7.0625l-3.40625 0l0 -1.484375zm3.1875 -2.640625q0 -0.421875 0.25 -0.71875q0.25 -0.296875 0.78125 -0.296875q0.5 0 0.765625 0.296875q0.265625 0.296875 0.265625 0.71875q0 0.421875 -0.265625 0.703125q-0.265625 0.265625 -0.765625 0.265625q-0.53125 0 -0.78125 -0.265625q-0.25 -0.28125 -0.25 -0.703125zm7.414322 7.5625q0 -1.109375 0.28125 -2.046875q0.28125 -0.953125 0.796875 -1.625q0.53125 -0.6875 1.265625 -1.0625q0.75 -0.375 1.671875 -0.375q0.890625 0 1.5625 0.296875q0.671875 0.296875 1.171875 0.875l0 -5.203125l1.71875 0l0 14.25l-1.578125 0l-0.078125 -1.0625q-0.5 0.609375 -1.203125 0.9375q-0.6875 0.3125 -1.625 0.3125q-0.90625 0 -1.640625 -0.390625q-0.734375 -0.390625 -1.265625 -1.078125q-0.515625 -0.6875 -0.796875 -1.609375q-0.28125 -0.9375 -0.28125 -2.015625l0 -0.203125zm1.703125 0.203125q0 0.734375 0.15625 1.390625q0.171875 0.65625 0.5 1.15625q0.328125 0.5 0.828125 0.796875q0.515625 0.296875 1.234375 0.296875q0.4375 0 0.78125 -0.09375q0.359375 -0.109375 0.640625 -0.296875q0.296875 -0.203125 0.515625 -0.46875q0.21875 -0.265625 0.390625 -0.578125l0 -4.65625q-0.34375 -0.625 -0.90625 -1.015625q-0.5625 -0.390625 -1.40625 -0.390625q-0.71875 0 -1.234375 0.296875q-0.515625 0.296875 -0.84375 0.8125q-0.328125 0.5 -0.5 1.171875q-0.15625 0.65625 -0.15625 1.375l0 0.203125zm10.086197 -5.125l5.1249847 0l0 8.546875l3.265625 0l0 1.484375l-8.39061 0l0 -1.484375l3.4062347 0l0 -7.0625l-3.4062347 0l0 -1.484375zm3.1874847 -2.640625q0 -0.421875 0.25 -0.71875q0.25 -0.296875 0.78125 -0.296875q0.5 0 0.765625 0.296875q0.265625 0.296875 0.265625 0.71875q0 0.421875 -0.265625 0.703125q-0.265625 0.265625 -0.765625 0.265625q-0.53125 0 -0.78125 -0.265625q-0.25 -0.28125 -0.25 -0.703125zm12.008087 11.46875q0.46875 0 0.90625 -0.140625q0.4375 -0.15625 0.78125 -0.421875q0.34375 -0.265625 0.546875 -0.625q0.21875 -0.359375 0.21875 -0.765625l1.625 0q0 0.65625 -0.34375 1.265625q-0.34375 0.609375 -0.90625 1.078125q-0.5625 0.453125 -1.296875 0.734375q-0.734375 0.265625 -1.53125 0.265625q-1.140625 0 -2.0 -0.40625q-0.84375 -0.40625 -1.421875 -1.09375q-0.5625 -0.703125 -0.859375 -1.609375q-0.28125 -0.90625 -0.28125 -1.90625l0 -0.390625q0 -0.984375 0.28125 -1.890625q0.296875 -0.921875 0.859375 -1.609375q0.578125 -0.6875 1.421875 -1.09375q0.859375 -0.40625 2.0 -0.40625q0.890625 0 1.640625 0.28125q0.75 0.28125 1.28125 0.765625q0.546875 0.484375 0.84375 1.15625q0.3125 0.671875 0.3125 1.421875l-1.625 0q0 -0.453125 -0.203125 -0.84375q-0.1875 -0.40625 -0.515625 -0.71875q-0.3125 -0.3125 -0.765625 -0.484375q-0.453125 -0.171875 -0.96875 -0.171875q-0.796875 0 -1.34375 0.328125q-0.53125 0.3125 -0.875 0.828125q-0.328125 0.515625 -0.484375 1.15625q-0.140625 0.640625 -0.140625 1.28125l0 0.390625q0 0.65625 0.140625 1.3125q0.15625 0.640625 0.484375 1.15625q0.328125 0.515625 0.859375 0.84375q0.546875 0.3125 1.359375 0.3125zm10.976807 -11.265625l0 2.4375l3.828125 0l0 1.3125l-3.828125 0l0 5.46875q0 0.578125 0.140625 0.96875q0.15625 0.375 0.421875 0.609375q0.265625 0.21875 0.59375 0.3125q0.34375 0.09375 0.71875 0.09375q0.28125 0 0.578125 -0.03125q0.296875 -0.046875 0.578125 -0.078125q0.28125 -0.046875 0.53125 -0.09375q0.25 -0.0625 0.40625 -0.09375l0.234375 1.203125q-0.203125 0.140625 -0.515625 0.234375q-0.296875 0.09375 -0.671875 0.15625q-0.359375 0.078125 -0.765625 0.109375q-0.390625 0.046875 -0.796875 0.046875q-0.671875 0 -1.25 -0.1875q-0.578125 -0.1875 -1.015625 -0.59375q-0.421875 -0.421875 -0.671875 -1.078125q-0.234375 -0.65625 -0.234375 -1.578125l0 -5.46875l-2.640625 0l0 -1.3125l2.640625 0l0 -2.4375l1.71875 0z" fill-rule="nonzero"></path><path fill="#ffffff" d="m497.33334 219.33858l249.32285 0l0 41.32283l-249.32285 0z" fill-rule="nonzero"></path><path stroke="#000000" stroke-width="1.0" stroke-linejoin="round" stroke-linecap="butt" d="m497.33334 219.33858l249.32285 0l0 41.32283l-249.32285 0z" fill-rule="nonzero"></path><path fill="#000000" d="m558.98865 246.25858l0 -8.71875l-2.765625 0l0 -1.3125l2.765625 0l0 -0.71875q0 -0.953125 0.28125 -1.6875q0.28125 -0.734375 0.796875 -1.21875q0.515625 -0.484375 1.234375 -0.734375q0.734375 -0.265625 1.625 -0.265625q0.609375 0 1.1875 0.109375q0.578125 0.109375 1.203125 0.265625l-0.21875 1.40625q-0.375 -0.125 -0.890625 -0.21875q-0.5 -0.09375 -1.0625 -0.09375q-1.21875 0 -1.828125 0.609375q-0.59375 0.59375 -0.59375 1.828125l0 0.71875l3.859375 0l0 1.3125l-3.859375 0l0 8.71875l-1.734375 0zm15.220276 -10.21875q0.25 0 0.5 0.015625q0.265625 0 0.5 0.046875q0.234375 0.03125 0.4375 0.078125q0.203125 0.046875 0.328125 0.09375l-0.234375 1.6875q-0.5 -0.125 -0.953125 -0.171875q-0.4375 -0.046875 -0.9375 -0.046875q-1.203125 0 -1.953125 0.546875q-0.75 0.546875 -1.09375 1.53125l0 6.4375l-1.734375 0l0 -10.03125l1.640625 0l0.078125 1.59375q0.609375 -0.828125 1.46875 -1.296875q0.859375 -0.484375 1.953125 -0.484375zm4.1331177 5.109375q0 -1.09375 0.3125 -2.015625q0.328125 -0.9375 0.90625 -1.625q0.59375 -0.6875 1.4375 -1.078125q0.84375 -0.390625 1.90625 -0.390625q1.0625 0 1.90625 0.390625q0.859375 0.390625 1.4375 1.078125q0.59375 0.6875 0.90625 1.625q0.328125 0.921875 0.328125 2.015625l0 0.203125q0 1.078125 -0.328125 2.015625q-0.3125 0.921875 -0.90625 1.609375q-0.578125 0.6875 -1.421875 1.078125q-0.84375 0.390625 -1.90625 0.390625q-1.0625 0 -1.921875 -0.390625q-0.84375 -0.390625 -1.4375 -1.078125q-0.578125 -0.6875 -0.90625 -1.609375q-0.3125 -0.9375 -0.3125 -2.015625l0 -0.203125zm1.71875 0.203125q0 0.734375 0.171875 1.40625q0.1875 0.671875 0.546875 1.1875q0.359375 0.515625 0.890625 0.8125q0.53125 0.296875 1.25 0.296875q0.703125 0 1.234375 -0.296875q0.546875 -0.296875 0.890625 -0.8125q0.359375 -0.515625 0.53125 -1.1875q0.1875 -0.671875 0.1875 -1.40625l0 -0.203125q0 -0.734375 -0.1875 -1.40625q-0.171875 -0.671875 -0.53125 -1.171875q-0.359375 -0.515625 -0.890625 -0.8125q-0.53125 -0.3125 -1.25 -0.3125q-0.71875 0 -1.25 0.3125q-0.515625 0.296875 -0.875 0.8125q-0.359375 0.5 -0.546875 1.171875q-0.171875 0.671875 -0.171875 1.40625l0 0.203125zm12.023682 3.5l6.390625 0l0 1.40625l-8.578125 0l0 -1.265625l6.0 -7.359375l-5.921875 0l0 -1.40625l8.171875 0l0 1.203125l-6.0625 7.421875zm13.570557 1.59375q-1.0625 0 -1.953125 -0.359375q-0.875 -0.359375 -1.515625 -1.015625q-0.625 -0.65625 -0.984375 -1.546875q-0.34375 -0.890625 -0.34375 -1.9375l0 -0.390625q0 -1.203125 0.390625 -2.15625q0.390625 -0.96875 1.03125 -1.625q0.65625 -0.671875 1.46875 -1.015625q0.828125 -0.359375 1.6875 -0.359375q1.078125 0 1.890625 0.375q0.8125 0.375 1.34375 1.046875q0.546875 0.65625 0.8125 1.5625q0.265625 0.890625 0.265625 1.9375l0 0.765625l-7.171875 0q0.03125 0.6875 0.265625 1.296875q0.234375 0.59375 0.640625 1.046875q0.421875 0.453125 1.0 0.71875q0.578125 0.25 1.265625 0.25q0.921875 0 1.625 -0.359375q0.71875 -0.375 1.203125 -0.984375l1.046875 0.8125q-0.25 0.375 -0.625 0.734375q-0.375 0.34375 -0.875 0.609375q-0.484375 0.265625 -1.109375 0.421875q-0.625 0.171875 -1.359375 0.171875zm-0.21875 -9.0q-0.515625 0 -0.984375 0.1875q-0.46875 0.1875 -0.84375 0.5625q-0.359375 0.359375 -0.625 0.890625q-0.25 0.53125 -0.34375 1.234375l5.390625 0l0 -0.125q-0.03125 -0.5 -0.1875 -0.984375q-0.15625 -0.5 -0.484375 -0.890625q-0.3125 -0.390625 -0.796875 -0.625q-0.46875 -0.25 -1.125 -0.25zm8.523682 -1.21875l0.125 1.484375q0.546875 -0.78125 1.34375 -1.21875q0.796875 -0.453125 1.78125 -0.453125q0.78125 0 1.421875 0.21875q0.65625 0.21875 1.109375 0.703125q0.453125 0.46875 0.6875 1.203125q0.25 0.71875 0.25 1.71875l0 6.375l-1.703125 0l0 -6.34375q0 -0.65625 -0.15625 -1.125q-0.140625 -0.46875 -0.4375 -0.75q-0.296875 -0.28125 -0.71875 -0.40625q-0.421875 -0.140625 -0.96875 -0.140625q-0.859375 0 -1.515625 0.4375q-0.65625 0.421875 -1.046875 1.125l0 7.203125l-1.71875 0l0 -10.03125l1.546875 0zm18.164368 5.125q0 1.078125 -0.265625 2.015625q-0.25 0.921875 -0.765625 1.609375q-0.5 0.6875 -1.234375 1.078125q-0.734375 0.390625 -1.6875 0.390625q-0.96875 0 -1.6875 -0.34375q-0.703125 -0.34375 -1.203125 -0.984375l-0.078125 1.140625l-1.578125 0l0 -14.25l1.71875 0l0 5.28125q0.484375 -0.609375 1.171875 -0.921875q0.703125 -0.328125 1.640625 -0.328125q0.953125 0 1.6875 0.375q0.75 0.375 1.25 1.0625q0.515625 0.671875 0.765625 1.625q0.265625 0.9375 0.265625 2.046875l0 0.203125zm-1.71875 -0.203125q0 -0.71875 -0.140625 -1.375q-0.140625 -0.671875 -0.46875 -1.171875q-0.3125 -0.515625 -0.828125 -0.8125q-0.5 -0.296875 -1.25 -0.296875q-0.4375 0 -0.8125 0.125q-0.375 0.109375 -0.671875 0.3125q-0.28125 0.203125 -0.515625 0.5q-0.21875 0.28125 -0.375 0.609375l0 4.390625q0.15625 0.328125 0.390625 0.609375q0.234375 0.28125 0.53125 0.5q0.296875 0.21875 0.65625 0.34375q0.375 0.109375 0.828125 0.109375q0.703125 0 1.203125 -0.296875q0.5 -0.296875 0.8125 -0.796875q0.328125 -0.5 0.484375 -1.15625q0.15625 -0.65625 0.15625 -1.390625l0 -0.203125zm4.6799316 -4.921875l5.125 0l0 8.546875l3.265625 0l0 1.484375l-8.390625 0l0 -1.484375l3.40625 0l0 -7.0625l-3.40625 0l0 -1.484375zm3.1875 -2.640625q0 -0.421875 0.25 -0.71875q0.25 -0.296875 0.78125 -0.296875q0.5 0 0.765625 0.296875q0.265625 0.296875 0.265625 0.71875q0 0.421875 -0.265625 0.703125q-0.265625 0.265625 -0.765625 0.265625q-0.53125 0 -0.78125 -0.265625q-0.25 -0.28125 -0.25 -0.703125zm7.4143066 7.5625q0 -1.109375 0.28125 -2.046875q0.28125 -0.953125 0.796875 -1.625q0.53125 -0.6875 1.265625 -1.0625q0.75 -0.375 1.671875 -0.375q0.890625 0 1.5625 0.296875q0.671875 0.296875 1.171875 0.875l0 -5.203125l1.71875 0l0 14.25l-1.578125 0l-0.078125 -1.0625q-0.5 0.609375 -1.203125 0.9375q-0.6875 0.3125 -1.625 0.3125q-0.90625 0 -1.640625 -0.390625q-0.734375 -0.390625 -1.265625 -1.078125q-0.515625 -0.6875 -0.796875 -1.609375q-0.28125 -0.9375 -0.28125 -2.015625l0 -0.203125zm1.703125 0.203125q0 0.734375 0.15625 1.390625q0.171875 0.65625 0.5 1.15625q0.328125 0.5 0.828125 0.796875q0.515625 0.296875 1.234375 0.296875q0.4375 0 0.78125 -0.09375q0.359375 -0.109375 0.640625 -0.296875q0.296875 -0.203125 0.515625 -0.46875q0.21875 -0.265625 0.390625 -0.578125l0 -4.65625q-0.34375 -0.625 -0.90625 -1.015625q-0.5625 -0.390625 -1.40625 -0.390625q-0.71875 0 -1.234375 0.296875q-0.515625 0.296875 -0.84375 0.8125q-0.328125 0.5 -0.5 1.171875q-0.15625 0.65625 -0.15625 1.375l0 0.203125zm10.086182 -5.125l5.125 0l0 8.546875l3.265625 0l0 1.484375l-8.390625 0l0 -1.484375l3.40625 0l0 -7.0625l-3.40625 0l0 -1.484375zm3.1875 -2.640625q0 -0.421875 0.25 -0.71875q0.25 -0.296875 0.78125 -0.296875q0.5 0 0.765625 0.296875q0.265625 0.296875 0.265625 0.71875q0 0.421875 -0.265625 0.703125q-0.265625 0.265625 -0.765625 0.265625q-0.53125 0 -0.78125 -0.265625q-0.25 -0.28125 -0.25 -0.703125zm12.008118 11.46875q0.46875 0 0.90625 -0.140625q0.4375 -0.15625 0.78125 -0.421875q0.34375 -0.265625 0.546875 -0.625q0.21875 -0.359375 0.21875 -0.765625l1.625 0q0 0.65625 -0.34375 1.265625q-0.34375 0.609375 -0.90625 1.078125q-0.5625 0.453125 -1.296875 0.734375q-0.734375 0.265625 -1.53125 0.265625q-1.140625 0 -2.0 -0.40625q-0.84375 -0.40625 -1.421875 -1.09375q-0.5625 -0.703125 -0.859375 -1.609375q-0.28125 -0.90625 -0.28125 -1.90625l0 -0.390625q0 -0.984375 0.28125 -1.890625q0.296875 -0.921875 0.859375 -1.609375q0.578125 -0.6875 1.421875 -1.09375q0.859375 -0.40625 2.0 -0.40625q0.890625 0 1.640625 0.28125q0.75 0.28125 1.28125 0.765625q0.546875 0.484375 0.84375 1.15625q0.3125 0.671875 0.3125 1.421875l-1.625 0q0 -0.453125 -0.203125 -0.84375q-0.1875 -0.40625 -0.515625 -0.71875q-0.3125 -0.3125 -0.765625 -0.484375q-0.453125 -0.171875 -0.96875 -0.171875q-0.796875 0 -1.34375 0.328125q-0.53125 0.3125 -0.875 0.828125q-0.328125 0.515625 -0.484375 1.15625q-0.140625 0.640625 -0.140625 1.28125l0 0.390625q0 0.65625 0.140625 1.3125q0.15625 0.640625 0.484375 1.15625q0.328125 0.515625 0.859375 0.84375q0.546875 0.3125 1.359375 0.3125zm10.976807 -11.265625l0 2.4375l3.828125 0l0 1.3125l-3.828125 0l0 5.46875q0 0.578125 0.140625 0.96875q0.15625 0.375 0.421875 0.609375q0.265625 0.21875 0.59375 0.3125q0.34375 0.09375 0.71875 0.09375q0.28125 0 0.578125 -0.03125q0.296875 -0.046875 0.578125 -0.078125q0.28125 -0.046875 0.53125 -0.09375q0.25 -0.0625 0.40625 -0.09375l0.234375 1.203125q-0.203125 0.140625 -0.515625 0.234375q-0.296875 0.09375 -0.671875 0.15625q-0.359375 0.078125 -0.765625 0.109375q-0.390625 0.046875 -0.796875 0.046875q-0.671875 0 -1.25 -0.1875q-0.578125 -0.1875 -1.015625 -0.59375q-0.421875 -0.421875 -0.671875 -1.078125q-0.234375 -0.65625 -0.234375 -1.578125l0 -5.46875l-2.640625 0l0 -1.3125l2.640625 0l0 -2.4375l1.71875 0z" fill-rule="nonzero"></path><path fill="#ffffff" d="m97.35433 307.3386l249.32281 0l0 41.322815l-249.32281 0z" fill-rule="nonzero"></path><path stroke="#000000" stroke-width="1.0" stroke-linejoin="round" stroke-linecap="butt" d="m97.35433 307.3386l249.32281 0l0 41.322815l-249.32281 0z" fill-rule="nonzero"></path><path fill="#000000" d="m162.33072 320.00858l5.125 0l0 12.765625l3.265625 0l0 1.484375l-8.390625 0l0 -1.484375l3.40625 0l0 -11.265625l-3.40625 0l0 -1.5zm10.429947 9.140625q0 -1.09375 0.3125 -2.015625q0.328125 -0.9375 0.90625 -1.625q0.59375 -0.6875 1.4375 -1.078125q0.84375 -0.390625 1.90625 -0.390625q1.0625 0 1.90625 0.390625q0.859375 0.390625 1.4375 1.078125q0.59375 0.6875 0.90625 1.625q0.328125 0.921875 0.328125 2.015625l0 0.203125q0 1.078125 -0.328125 2.015625q-0.3125 0.921875 -0.90625 1.609375q-0.578125 0.6875 -1.421875 1.078125q-0.84375 0.390625 -1.90625 0.390625q-1.0625 0 -1.921875 -0.390625q-0.84375 -0.390625 -1.4375 -1.078125q-0.578125 -0.6875 -0.90625 -1.609375q-0.3125 -0.9375 -0.3125 -2.015625l0 -0.203125zm1.71875 0.203125q0 0.734375 0.171875 1.40625q0.1875 0.671875 0.546875 1.1875q0.359375 0.515625 0.890625 0.8125q0.53125 0.296875 1.25 0.296875q0.703125 0 1.234375 -0.296875q0.546875 -0.296875 0.890625 -0.8125q0.359375 -0.515625 0.53125 -1.1875q0.1875 -0.671875 0.1875 -1.40625l0 -0.203125q0 -0.734375 -0.1875 -1.40625q-0.171875 -0.671875 -0.53125 -1.171875q-0.359375 -0.515625 -0.890625 -0.8125q-0.53125 -0.3125 -1.25 -0.3125q-0.71875 0 -1.25 0.3125q-0.515625 0.296875 -0.875 0.8125q-0.359375 0.5 -0.546875 1.171875q-0.171875 0.671875 -0.171875 1.40625l0 0.203125zm9.476822 -0.203125q0 -1.09375 0.3125 -2.015625q0.328125 -0.9375 0.90625 -1.625q0.59375 -0.6875 1.4375 -1.078125q0.84375 -0.390625 1.90625 -0.390625q1.0625 0 1.90625 0.390625q0.859375 0.390625 1.4375 1.078125q0.59375 0.6875 0.90625 1.625q0.328125 0.921875 0.328125 2.015625l0 0.203125q0 1.078125 -0.328125 2.015625q-0.3125 0.921875 -0.90625 1.609375q-0.578125 0.6875 -1.421875 1.078125q-0.84375 0.390625 -1.90625 0.390625q-1.0625 0 -1.921875 -0.390625q-0.84375 -0.390625 -1.4375 -1.078125q-0.578125 -0.6875 -0.90625 -1.609375q-0.3125 -0.9375 -0.3125 -2.015625l0 -0.203125zm1.71875 0.203125q0 0.734375 0.171875 1.40625q0.1875 0.671875 0.546875 1.1875q0.359375 0.515625 0.890625 0.8125q0.53125 0.296875 1.25 0.296875q0.703125 0 1.234375 -0.296875q0.546875 -0.296875 0.890625 -0.8125q0.359375 -0.515625 0.53125 -1.1875q0.1875 -0.671875 0.1875 -1.40625l0 -0.203125q0 -0.734375 -0.1875 -1.40625q-0.171875 -0.671875 -0.53125 -1.171875q-0.359375 -0.515625 -0.890625 -0.8125q-0.53125 -0.3125 -1.25 -0.3125q-0.71875 0 -1.25 0.3125q-0.515625 0.296875 -0.875 0.8125q-0.359375 0.5 -0.546875 1.171875q-0.171875 0.671875 -0.171875 1.40625l0 0.203125zm16.633072 2.25q0 -0.3125 -0.125 -0.546875q-0.109375 -0.25 -0.40625 -0.453125q-0.28125 -0.21875 -0.765625 -0.390625q-0.46875 -0.171875 -1.171875 -0.296875q-0.859375 -0.1875 -1.578125 -0.4375q-0.703125 -0.25 -1.203125 -0.59375q-0.5 -0.34375 -0.78125 -0.8125q-0.28125 -0.46875 -0.28125 -1.09375q0 -0.609375 0.28125 -1.140625q0.296875 -0.546875 0.8125 -0.9375q0.515625 -0.40625 1.234375 -0.625q0.71875 -0.234375 1.578125 -0.234375q0.9375 0 1.671875 0.25q0.75 0.234375 1.265625 0.65625q0.515625 0.421875 0.796875 1.0q0.296875 0.5625 0.296875 1.21875l-1.71875 0q0 -0.3125 -0.171875 -0.625q-0.171875 -0.3125 -0.46875 -0.546875q-0.296875 -0.25 -0.71875 -0.390625q-0.421875 -0.15625 -0.953125 -0.15625q-0.546875 0 -0.953125 0.125q-0.40625 0.109375 -0.6875 0.3125q-0.265625 0.203125 -0.40625 0.484375q-0.140625 0.265625 -0.140625 0.546875q0 0.296875 0.109375 0.53125q0.109375 0.234375 0.375 0.421875q0.28125 0.1875 0.734375 0.34375q0.46875 0.140625 1.171875 0.28125q0.921875 0.1875 1.65625 0.453125q0.734375 0.25 1.234375 0.609375q0.5 0.359375 0.765625 0.828125q0.265625 0.46875 0.265625 1.09375q0 0.671875 -0.3125 1.21875q-0.296875 0.546875 -0.828125 0.9375q-0.53125 0.390625 -1.296875 0.609375q-0.75 0.203125 -1.640625 0.203125q-1.015625 0 -1.8125 -0.265625q-0.796875 -0.28125 -1.359375 -0.734375q-0.546875 -0.453125 -0.84375 -1.046875q-0.28125 -0.59375 -0.28125 -1.234375l1.71875 0q0.03125 0.53125 0.28125 0.890625q0.25 0.359375 0.609375 0.59375q0.375 0.21875 0.8125 0.3125q0.453125 0.09375 0.875 0.09375q1.09375 0 1.71875 -0.390625q0.640625 -0.40625 0.640625 -1.0625zm8.961197 2.84375q-1.0625 0 -1.953125 -0.359375q-0.875 -0.359375 -1.515625 -1.015625q-0.625 -0.65625 -0.984375 -1.546875q-0.34375 -0.890625 -0.34375 -1.9375l0 -0.390625q0 -1.203125 0.390625 -2.15625q0.390625 -0.96875 1.03125 -1.625q0.65625 -0.671875 1.46875 -1.015625q0.828125 -0.359375 1.6875 -0.359375q1.078125 0 1.890625 0.375q0.8125 0.375 1.34375 1.046875q0.546875 0.65625 0.8125 1.5625q0.265625 0.890625 0.265625 1.9375l0 0.765625l-7.171875 0q0.03125 0.6875 0.265625 1.296875q0.234375 0.59375 0.640625 1.046875q0.421875 0.453125 1.0 0.71875q0.578125 0.25 1.265625 0.25q0.921875 0 1.625 -0.359375q0.71875 -0.375 1.203125 -0.984375l1.046875 0.8125q-0.25 0.375 -0.625 0.734375q-0.375 0.34375 -0.875 0.609375q-0.484375 0.265625 -1.109375 0.421875q-0.625 0.171875 -1.359375 0.171875zm-0.21875 -9.0q-0.515625 0 -0.984375 0.1875q-0.46875 0.1875 -0.84375 0.5625q-0.359375 0.359375 -0.625 0.890625q-0.25 0.53125 -0.34375 1.234375l5.390625 0l0 -0.125q-0.03125 -0.5 -0.1875 -0.984375q-0.15625 -0.5 -0.484375 -0.890625q-0.3125 -0.390625 -0.796875 -0.625q-0.46875 -0.25 -1.125 -0.25zm15.492447 3.90625q0 1.078125 -0.265625 2.015625q-0.25 0.921875 -0.765625 1.609375q-0.5 0.6875 -1.234375 1.078125q-0.734375 0.390625 -1.6875 0.390625q-0.96875 0 -1.6875 -0.34375q-0.703125 -0.34375 -1.203125 -0.984375l-0.078125 1.140625l-1.578125 0l0 -14.25l1.71875 0l0 5.28125q0.484375 -0.609375 1.171875 -0.921875q0.703125 -0.328125 1.640625 -0.328125q0.953125 0 1.6875 0.375q0.75 0.375 1.25 1.0625q0.515625 0.671875 0.765625 1.625q0.265625 0.9375 0.265625 2.046875l0 0.203125zm-1.71875 -0.203125q0 -0.71875 -0.140625 -1.375q-0.140625 -0.671875 -0.46875 -1.171875q-0.3125 -0.515625 -0.828125 -0.8125q-0.5 -0.296875 -1.25 -0.296875q-0.4375 0 -0.8125 0.125q-0.375 0.109375 -0.671875 0.3125q-0.28125 0.203125 -0.515625 0.5q-0.21875 0.28125 -0.375 0.609375l0 4.390625q0.15625 0.328125 0.390625 0.609375q0.234375 0.28125 0.53125 0.5q0.296875 0.21875 0.65625 0.34375q0.375 0.109375 0.828125 0.109375q0.703125 0 1.203125 -0.296875q0.5 -0.296875 0.8125 -0.796875q0.328125 -0.5 0.484375 -1.15625q0.15625 -0.65625 0.15625 -1.390625l0 -0.203125zm4.679947 -4.921875l5.125 0l0 8.546875l3.265625 0l0 1.484375l-8.390625 0l0 -1.484375l3.40625 0l0 -7.0625l-3.40625 0l0 -1.484375zm3.1875 -2.640625q0 -0.421875 0.25 -0.71875q0.25 -0.296875 0.78125 -0.296875q0.5 0 0.765625 0.296875q0.265625 0.296875 0.265625 0.71875q0 0.421875 -0.265625 0.703125q-0.265625 0.265625 -0.765625 0.265625q-0.53125 0 -0.78125 -0.265625q-0.25 -0.28125 -0.25 -0.703125zm7.414322 7.5625q0 -1.109375 0.28125 -2.046875q0.28125 -0.953125 0.796875 -1.625q0.53125 -0.6875 1.265625 -1.0625q0.75 -0.375 1.671875 -0.375q0.890625 0 1.5625 0.296875q0.671875 0.296875 1.171875 0.875l0 -5.203125l1.71875 0l0 14.25l-1.578125 0l-0.078125 -1.0625q-0.5 0.609375 -1.203125 0.9375q-0.6875 0.3125 -1.625 0.3125q-0.90625 0 -1.640625 -0.390625q-0.734375 -0.390625 -1.265625 -1.078125q-0.515625 -0.6875 -0.796875 -1.609375q-0.28125 -0.9375 -0.28125 -2.015625l0 -0.203125zm1.703125 0.203125q0 0.734375 0.15625 1.390625q0.171875 0.65625 0.5 1.15625q0.328125 0.5 0.828125 0.796875q0.515625 0.296875 1.234375 0.296875q0.4375 0 0.78125 -0.09375q0.359375 -0.109375 0.640625 -0.296875q0.296875 -0.203125 0.515625 -0.46875q0.21875 -0.265625 0.390625 -0.578125l0 -4.65625q-0.34375 -0.625 -0.90625 -1.015625q-0.5625 -0.390625 -1.40625 -0.390625q-0.71875 0 -1.234375 0.296875q-0.515625 0.296875 -0.84375 0.8125q-0.328125 0.5 -0.5 1.171875q-0.15625 0.65625 -0.15625 1.375l0 0.203125zm10.086197 -5.125l5.125 0l0 8.546875l3.265625 0l0 1.484375l-8.390625 0l0 -1.484375l3.40625 0l0 -7.0625l-3.40625 0l0 -1.484375zm3.1875 -2.640625q0 -0.421875 0.25 -0.71875q0.25 -0.296875 0.78125 -0.296875q0.5 0 0.765625 0.296875q0.265625 0.296875 0.265625 0.71875q0 0.421875 -0.265625 0.703125q-0.265625 0.265625 -0.765625 0.265625q-0.53125 0 -0.78125 -0.265625q-0.25 -0.28125 -0.25 -0.703125zm12.008087 11.46875q0.46875 0 0.90625 -0.140625q0.4375 -0.15625 0.78125 -0.421875q0.34375 -0.265625 0.546875 -0.625q0.21875 -0.359375 0.21875 -0.765625l1.625 0q0 0.65625 -0.34375 1.265625q-0.34375 0.609375 -0.90625 1.078125q-0.5625 0.453125 -1.296875 0.734375q-0.734375 0.265625 -1.53125 0.265625q-1.140625 0 -2.0 -0.40625q-0.84375 -0.40625 -1.421875 -1.09375q-0.5625 -0.703125 -0.859375 -1.609375q-0.28125 -0.90625 -0.28125 -1.90625l0 -0.390625q0 -0.984375 0.28125 -1.890625q0.296875 -0.921875 0.859375 -1.609375q0.578125 -0.6875 1.421875 -1.09375q0.859375 -0.40625 2.0 -0.40625q0.890625 0 1.640625 0.28125q0.75 0.28125 1.28125 0.765625q0.546875 0.484375 0.84375 1.15625q0.3125 0.671875 0.3125 1.421875l-1.625 0q0 -0.453125 -0.203125 -0.84375q-0.1875 -0.40625 -0.515625 -0.71875q-0.3125 -0.3125 -0.765625 -0.484375q-0.453125 -0.171875 -0.96875 -0.171875q-0.796875 0 -1.34375 0.328125q-0.53125 0.3125 -0.875 0.828125q-0.328125 0.515625 -0.484375 1.15625q-0.140625 0.640625 -0.140625 1.28125l0 0.390625q0 0.65625 0.140625 1.3125q0.15625 0.640625 0.484375 1.15625q0.328125 0.515625 0.859375 0.84375q0.546875 0.3125 1.359375 0.3125zm10.976807 -11.265625l0 2.4375l3.828125 0l0 1.3125l-3.828125 0l0 5.46875q0 0.578125 0.140625 0.96875q0.15625 0.375 0.421875 0.609375q0.265625 0.21875 0.59375 0.3125q0.34375 0.09375 0.71875 0.09375q0.28125 0 0.578125 -0.03125q0.296875 -0.046875 0.578125 -0.078125q0.28125 -0.046875 0.53125 -0.09375q0.25 -0.0625 0.40625 -0.09375l0.234375 1.203125q-0.203125 0.140625 -0.515625 0.234375q-0.296875 0.09375 -0.671875 0.15625q-0.359375 0.078125 -0.765625 0.109375q-0.390625 0.046875 -0.796875 0.046875q-0.671875 0 -1.25 -0.1875q-0.578125 -0.1875 -1.015625 -0.59375q-0.421875 -0.421875 -0.671875 -1.078125q-0.234375 -0.65625 -0.234375 -1.578125l0 -5.46875l-2.640625 0l0 -1.3125l2.640625 0l0 -2.4375l1.71875 0z" fill-rule="nonzero"></path><path fill="#000000" fill-opacity="0.0" d="m222.01575 221.33858l126.33072 -45.039368" fill-rule="nonzero"></path><path stroke="#000000" stroke-width="1.0" stroke-linejoin="round" stroke-linecap="butt" d="m222.01575 221.33858l120.67914 -43.024475" fill-rule="evenodd"></path><path fill="#000000" stroke="#000000" stroke-width="1.0" stroke-linecap="butt" d="m343.24957 179.86992l3.7198792 -3.079773l-4.829254 -0.031845093z" fill-rule="evenodd"></path><path fill="#000000" fill-opacity="0.0" d="m621.99475 219.33858l-124.75592 -41.637787" fill-rule="nonzero"></path><path stroke="#000000" stroke-width="1.0" stroke-linejoin="round" stroke-linecap="butt" d="m621.99475 219.33858l-119.064514 -39.738266" fill-rule="evenodd"></path><path fill="#000000" stroke="#000000" stroke-width="1.0" stroke-linecap="butt" d="m503.45316 178.03354l-4.827606 0.13006592l3.7817688 3.003479z" fill-rule="evenodd"></path><path fill="#000000" fill-opacity="0.0" d="m222.01575 307.3386l0 -44.661438" fill-rule="nonzero"></path><path stroke="#000000" stroke-width="1.0" stroke-linejoin="round" stroke-linecap="butt" d="m222.01575 307.3386l0 -38.661438" fill-rule="evenodd"></path><path fill="#000000" stroke="#000000" stroke-width="1.0" stroke-linecap="butt" d="m223.66748 268.67715l-1.6517334 -4.538086l-1.6517334 4.538086z" fill-rule="evenodd"></path><path fill="#f3f3f3" d="m28.692913 26.671917l249.32283 0l0 41.322834l-249.32283 0z" fill-rule="nonzero"></path><path stroke="#000000" stroke-width="1.0" stroke-linejoin="round" stroke-linecap="butt" d="m28.692913 26.671917l249.32283 0l0 41.322834l-249.32283 0z" fill-rule="nonzero"></path><path fill="#000000" d="m81.4414 40.07629l0.96875 6.75l3.46875 -6.75l2.109375 0l-2.34375 13.515625l-1.625 0l0.9375 -5.46875l1.078125 -5.40625l-3.609375 7.125l-0.96875 0l-1.0 -7.171875l-0.84375 5.609375l-0.90625 5.3125l-1.640625 0l2.34375 -13.515625l2.03125 0zm13.4496155 12.140625q-0.59375 0.71875 -1.359375 1.15625q-0.765625 0.421875 -1.75 0.40625q-0.890625 -0.015625 -1.46875 -0.390625q-0.5625 -0.375 -0.875 -0.984375q-0.3125 -0.609375 -0.390625 -1.359375q-0.078125 -0.75 0 -1.53125l1.0 -5.953125l1.6875 0l-1.0 5.984375q-0.046875 0.46875 -0.0625 0.953125q-0.015625 0.484375 0.125 0.890625q0.140625 0.390625 0.453125 0.65625q0.3125 0.25 0.890625 0.28125q0.9375 0.015625 1.640625 -0.390625q0.71875 -0.40625 1.21875 -1.171875l1.25 -7.203125l1.6875 0l-1.75 10.03125l-1.515625 0l0.21875 -1.375zm10.4339905 -11.09375l-0.421875 2.4375l3.703125 0l-0.234375 1.3125l-3.703125 0l-0.90625 5.46875q-0.046875 0.40625 0 0.765625q0.046875 0.34375 0.203125 0.609375q0.15625 0.265625 0.453125 0.421875q0.296875 0.15625 0.734375 0.15625q0.515625 0.03125 1.015625 -0.0625q0.515625 -0.09375 1.015625 -0.203125l0.15625 1.234375q-0.59375 0.3125 -1.3125 0.40625q-0.703125 0.109375 -1.359375 0.09375q-0.75 0 -1.28125 -0.28125q-0.515625 -0.296875 -0.828125 -0.765625q-0.3125 -0.46875 -0.4375 -1.078125q-0.109375 -0.609375 -0.046875 -1.296875l0.90625 -5.46875l-2.5625 0l0.234375 -1.3125l2.5625 0l0.421875 -2.4375l1.6875 0zm11.3246155 12.46875q-0.078125 -0.28125 -0.078125 -0.546875q0 -0.265625 0.03125 -0.546875q-0.65625 0.578125 -1.4375 0.9375q-0.78125 0.34375 -1.671875 0.328125q-0.640625 0 -1.203125 -0.203125q-0.546875 -0.203125 -0.96875 -0.578125q-0.40625 -0.375 -0.640625 -0.90625q-0.21875 -0.53125 -0.1875 -1.1875q0.03125 -0.65625 0.25 -1.15625q0.234375 -0.5 0.59375 -0.875q0.375 -0.375 0.84375 -0.625q0.46875 -0.265625 1.0 -0.421875q0.546875 -0.171875 1.109375 -0.234375q0.578125 -0.078125 1.125 -0.078125l1.921875 0l0.109375 -0.796875q0.0625 -0.46875 -0.0625 -0.828125q-0.125 -0.359375 -0.390625 -0.609375q-0.25 -0.25 -0.640625 -0.375q-0.375 -0.140625 -0.828125 -0.140625q-0.390625 -0.015625 -0.78125 0.078125q-0.375 0.09375 -0.703125 0.296875q-0.3125 0.1875 -0.546875 0.484375q-0.234375 0.296875 -0.328125 0.71875l-1.671875 0.015625q0.078125 -0.765625 0.484375 -1.328125q0.40625 -0.5625 1.0 -0.921875q0.609375 -0.375 1.3125 -0.5625q0.71875 -0.1875 1.40625 -0.171875q0.765625 0.015625 1.421875 0.25q0.65625 0.21875 1.125 0.65625q0.46875 0.421875 0.703125 1.046875q0.25 0.625 0.171875 1.421875l-0.78125 4.671875q-0.09375 0.515625 -0.09375 1.03125q0 0.5 0.109375 1.0l-0.015625 0.15625l-1.6875 0zm-2.828125 -1.296875q0.890625 0.015625 1.65625 -0.40625q0.765625 -0.421875 1.28125 -1.125l0.375 -2.046875l-1.453125 0q-0.5 0 -1.078125 0.0625q-0.578125 0.0625 -1.09375 0.265625q-0.515625 0.203125 -0.875 0.59375q-0.359375 0.375 -0.4375 1.0q-0.046875 0.390625 0.046875 0.703125q0.109375 0.296875 0.328125 0.515625q0.234375 0.203125 0.546875 0.3125q0.3125 0.109375 0.703125 0.125zm16.402733 -3.671875q-0.09375 0.625 -0.265625 1.25q-0.171875 0.625 -0.4375 1.203125q-0.265625 0.578125 -0.640625 1.078125q-0.375 0.5 -0.859375 0.875q-0.46874237 0.375 -1.0624924 0.578125q-0.59375 0.203125 -1.3125 0.171875q-0.8125 -0.015625 -1.5 -0.328125q-0.6875 -0.328125 -1.140625 -1.015625l-0.34375 1.15625l-1.546875 0l2.46875 -14.25l1.6875 0l-1.015625 5.296875q0.578125 -0.640625 1.296875 -0.96875q0.71875 -0.328125 1.59375 -0.296875q0.671875 0.015625 1.1874924 0.234375q0.515625 0.21875 0.875 0.59375q0.375 0.375 0.59375 0.875q0.234375 0.484375 0.34375 1.046875q0.125 0.5625 0.140625 1.15625q0.015625 0.59375 -0.046875 1.15625l-0.015625 0.1875zm-1.65625 -0.203125q0.0625 -0.5625 0.03125 -1.1875q-0.015625 -0.625 -0.21875 -1.15625q-0.1875 -0.53125 -0.6093674 -0.875q-0.40625 -0.359375 -1.140625 -0.375q-0.421875 -0.015625 -0.796875 0.109375q-0.375 0.109375 -0.703125 0.3125q-0.3125 0.203125 -0.59375 0.5q-0.265625 0.28125 -0.5 0.609375l-0.75 4.421875q0.25 0.703125 0.75 1.125q0.515625 0.40625 1.28125 0.421875q0.765625 0.015625 1.328125 -0.3125q0.578125 -0.328125 0.96875 -0.859375q0.39061737 -0.546875 0.6093674 -1.203125q0.21875 -0.671875 0.3125 -1.328125l0.03125 -0.203125zm6.2152405 -9.078125l5.0 0l-2.21875 12.765625l3.171875 0l-0.265625 1.484375l-8.15625 0l0.265625 -1.484375l3.296875 0l1.96875 -11.265625l-3.328125 0l0.265625 -1.5zm12.6371155 14.4375q-1.03125 -0.015625 -1.8125 -0.40625q-0.765625 -0.40625 -1.265625 -1.0625q-0.5 -0.671875 -0.71875 -1.53125q-0.21875 -0.859375 -0.140625 -1.828125l0.046875 -0.390625q0.078125 -0.671875 0.296875 -1.3125q0.21875 -0.640625 0.546875 -1.21875q0.34375 -0.59375 0.78125 -1.078125q0.453125 -0.5 1.0 -0.859375q0.5625 -0.359375 1.203125 -0.546875q0.65625 -0.203125 1.359375 -0.171875q1.046875 0.015625 1.75 0.4375q0.71875 0.421875 1.140625 1.109375q0.421875 0.6875 0.5625 1.578125q0.140625 0.875 0.015625 1.796875l-0.125 0.765625l-6.90625 0q-0.078125 0.609375 0.03125 1.203125q0.125 0.578125 0.421875 1.046875q0.296875 0.46875 0.78125 0.75q0.5 0.28125 1.171875 0.3125q0.875 0.015625 1.609375 -0.34375q0.734375 -0.375 1.328125 -0.984375l0.96875 0.8125q-0.34375 0.484375 -0.8125 0.859375q-0.453125 0.359375 -0.984375 0.609375q-0.515625 0.234375 -1.09375 0.34375q-0.578125 0.109375 -1.15625 0.109375zm1.21875 -9.0q-0.65625 -0.03125 -1.171875 0.21875q-0.515625 0.25 -0.921875 0.65625q-0.40625 0.40625 -0.703125 0.9375q-0.296875 0.53125 -0.484375 1.0625l5.234375 0.015625l0.03125 -0.171875q0.078125 -0.5 -0.015625 -0.984375q-0.078125 -0.484375 -0.34375 -0.859375q-0.265625 -0.390625 -0.671875 -0.625q-0.40625 -0.234375 -0.953125 -0.25zm9.4496155 -4.703125l0.96875 6.75l3.46875 -6.75l2.109375 0l-2.34375 13.515625l-1.625 0l0.9375 -5.46875l1.078125 -5.40625l-3.609375 7.125l-0.96875 0l-1.0 -7.171875l-0.84375 5.609375l-0.90625 5.3125l-1.640625 0l2.34375 -13.515625l2.03125 0zm13.3089905 13.515625q-0.078125 -0.28125 -0.078125 -0.546875q0 -0.265625 0.03125 -0.546875q-0.65625 0.578125 -1.4375 0.9375q-0.78125 0.34375 -1.671875 0.328125q-0.640625 0 -1.203125 -0.203125q-0.546875 -0.203125 -0.96875 -0.578125q-0.40625 -0.375 -0.640625 -0.90625q-0.21875 -0.53125 -0.1875 -1.1875q0.03125 -0.65625 0.25 -1.15625q0.234375 -0.5 0.59375 -0.875q0.375 -0.375 0.84375 -0.625q0.46875 -0.265625 1.0 -0.421875q0.546875 -0.171875 1.109375 -0.234375q0.578125 -0.078125 1.125 -0.078125l1.921875 0l0.109375 -0.796875q0.0625 -0.46875 -0.0625 -0.828125q-0.125 -0.359375 -0.390625 -0.609375q-0.25 -0.25 -0.640625 -0.375q-0.375 -0.140625 -0.828125 -0.140625q-0.390625 -0.015625 -0.78125 0.078125q-0.375 0.09375 -0.703125 0.296875q-0.3125 0.1875 -0.546875 0.484375q-0.234375 0.296875 -0.328125 0.71875l-1.671875 0.015625q0.078125 -0.765625 0.484375 -1.328125q0.40625 -0.5625 1.0 -0.921875q0.609375 -0.375 1.3125 -0.5625q0.71875 -0.1875 1.40625 -0.171875q0.765625 0.015625 1.421875 0.25q0.65625 0.21875 1.125 0.65625q0.46875 0.421875 0.703125 1.046875q0.25 0.625 0.171875 1.421875l-0.78125 4.671875q-0.09375 0.515625 -0.09375 1.03125q0 0.5 0.109375 1.0l-0.015625 0.15625l-1.6875 0zm-2.828125 -1.296875q0.890625 0.015625 1.65625 -0.40625q0.765625 -0.421875 1.28125 -1.125l0.375 -2.046875l-1.453125 0q-0.5 0 -1.078125 0.0625q-0.578125 0.0625 -1.09375 0.265625q-0.515625 0.203125 -0.875 0.59375q-0.359375 0.375 -0.4375 1.0q-0.046875 0.390625 0.046875 0.703125q0.109375 0.296875 0.328125 0.515625q0.234375 0.203125 0.546875 0.3125q0.3125 0.109375 0.703125 0.125zm16.355865 -3.671875q-0.109375 0.921875 -0.4375 1.859375q-0.328125 0.921875 -0.890625 1.671875q-0.5625 0.734375 -1.375 1.203125q-0.796875 0.453125 -1.859375 0.421875q-0.765625 -0.015625 -1.453125 -0.28125q-0.671875 -0.28125 -1.15625 -0.875l-0.90625 4.828125l-1.671875 0l2.40625 -13.890625l1.515625 -0.015625l-0.171875 1.109375q0.59375 -0.640625 1.3125 -0.96875q0.734375 -0.34375 1.609375 -0.3125q0.6875 0.015625 1.1875 0.234375q0.515625 0.21875 0.875 0.59375q0.375 0.375 0.59375 0.875q0.234375 0.484375 0.34375 1.046875q0.125 0.5625 0.140625 1.15625q0.03125 0.578125 -0.046875 1.140625l-0.015625 0.203125zm-1.65625 -0.203125q0.0625 -0.5625 0.03125 -1.1875q-0.03125 -0.625 -0.25 -1.15625q-0.203125 -0.53125 -0.640625 -0.875q-0.421875 -0.359375 -1.140625 -0.375q-0.796875 -0.015625 -1.40625 0.375q-0.59375 0.375 -1.0625 0.984375l-0.84375 4.859375q0.5625 1.296875 1.984375 1.34375q0.78125 0.015625 1.359375 -0.3125q0.578125 -0.34375 0.984375 -0.890625q0.40625 -0.546875 0.640625 -1.21875q0.234375 -0.6875 0.328125 -1.34375l0.015625 -0.203125zm12.6058655 0.203125q-0.109375 0.921875 -0.4375 1.859375q-0.328125 0.921875 -0.890625 1.671875q-0.5625 0.734375 -1.375 1.203125q-0.796875 0.453125 -1.859375 0.421875q-0.765625 -0.015625 -1.453125 -0.28125q-0.671875 -0.28125 -1.15625 -0.875l-0.90625 4.828125l-1.671875 0l2.40625 -13.890625l1.515625 -0.015625l-0.171875 1.109375q0.59375 -0.640625 1.3125 -0.96875q0.734375 -0.34375 1.609375 -0.3125q0.6875 0.015625 1.1875 0.234375q0.515625 0.21875 0.875 0.59375q0.375 0.375 0.59375 0.875q0.234375 0.484375 0.34375 1.046875q0.125 0.5625 0.140625 1.15625q0.03125 0.578125 -0.046875 1.140625l-0.015625 0.203125zm-1.65625 -0.203125q0.0625 -0.5625 0.03125 -1.1875q-0.03125 -0.625 -0.25 -1.15625q-0.203125 -0.53125 -0.640625 -0.875q-0.421875 -0.359375 -1.140625 -0.375q-0.796875 -0.015625 -1.40625 0.375q-0.59375 0.375 -1.0625 0.984375l-0.84375 4.859375q0.5625 1.296875 1.984375 1.34375q0.78125 0.015625 1.359375 -0.3125q0.578125 -0.34375 0.984375 -0.890625q0.40625 -0.546875 0.640625 -1.21875q0.234375 -0.6875 0.328125 -1.34375l0.015625 -0.203125zm5.5277405 -4.859375l5.0 0l-1.484375 8.546875l3.171875 0l-0.265625 1.484375l-8.15625 0l0.265625 -1.484375l3.296875 0l1.234375 -7.0625l-3.3125 0l0.25 -1.484375zm3.5625 -2.609375q0 -0.453125 0.28125 -0.734375q0.28125 -0.296875 0.71875 -0.3125q0.234375 -0.015625 0.40625 0.0625q0.1875 0.078125 0.3125 0.203125q0.140625 0.125 0.203125 0.3125q0.078125 0.1875 0.078125 0.40625q0 0.453125 -0.28125 0.734375q-0.28125 0.265625 -0.71875 0.28125q-0.4375 0.015625 -0.71875 -0.25q-0.28125 -0.265625 -0.28125 -0.703125zm8.6214905 2.59375l-0.203125 1.5q0.296875 -0.375 0.65625 -0.6875q0.359375 -0.328125 0.765625 -0.546875q0.421875 -0.21875 0.875 -0.328125q0.453125 -0.125 0.953125 -0.109375q0.84375 0.015625 1.421875 0.328125q0.578125 0.3125 0.90625 0.84375q0.34375 0.515625 0.453125 1.21875q0.125 0.6875 0.03125 1.453125l-1.0625 6.375l-1.671875 0l1.0625 -6.34375q0.0625 -0.515625 0 -0.953125q-0.046875 -0.4375 -0.25 -0.75q-0.1875 -0.328125 -0.5625 -0.515625q-0.359375 -0.203125 -0.90625 -0.203125q-0.4375 -0.015625 -0.84375 0.109375q-0.390625 0.109375 -0.734375 0.328125q-0.34375 0.203125 -0.640625 0.5q-0.296875 0.28125 -0.546875 0.625l-1.265625 7.203125l-1.671875 0l1.75 -10.03125l1.484375 -0.015625zm8.2933655 5.015625q0.09375 -0.625 0.265625 -1.265625q0.171875 -0.640625 0.4375 -1.21875q0.28125 -0.578125 0.65625 -1.078125q0.375 -0.5 0.859375 -0.875q0.5 -0.375 1.09375 -0.578125q0.609375 -0.203125 1.328125 -0.1875q0.796875 0.015625 1.46875 0.328125q0.671875 0.3125 1.109375 0.96875l0.328125 -1.09375l1.546875 0l-1.671875 9.8125q-0.125 0.9375 -0.53125 1.71875q-0.390625 0.78125 -1.015625 1.328125q-0.609375 0.5625 -1.421875 0.859375q-0.8125 0.296875 -1.78125 0.28125q-0.5 -0.015625 -1.0 -0.140625q-0.484375 -0.109375 -0.9375 -0.34375q-0.4375 -0.21875 -0.828125 -0.546875q-0.375 -0.3125 -0.65625 -0.734375l0.953125 -1.03125q0.4375 0.625 1.03125 1.0q0.59375 0.375 1.375 0.390625q0.640625 0.015625 1.15625 -0.171875q0.53125 -0.1875 0.921875 -0.546875q0.40625 -0.34375 0.671875 -0.859375q0.265625 -0.5 0.375 -1.09375l0.1875 -0.890625q-0.578125 0.59375 -1.28125 0.90625q-0.6875 0.296875 -1.53125 0.28125q-0.65625 -0.015625 -1.171875 -0.234375q-0.5 -0.234375 -0.875 -0.609375q-0.359375 -0.390625 -0.59375 -0.875q-0.234375 -0.5 -0.359375 -1.046875q-0.125 -0.5625 -0.15625 -1.140625q-0.03125 -0.578125 0.03125 -1.125l0.015625 -0.1875zm1.65625 0.1875q-0.046875 0.375 -0.046875 0.78125q0 0.40625 0.046875 0.796875q0.0625 0.390625 0.1875 0.75q0.140625 0.359375 0.375 0.640625q0.234375 0.265625 0.578125 0.4375q0.34375 0.15625 0.8125 0.171875q0.84375 0.015625 1.453125 -0.390625q0.625 -0.40625 1.078125 -1.078125l0.796875 -4.625q-0.265625 -0.65625 -0.765625 -1.03125q-0.484375 -0.375 -1.21875 -0.390625q-0.765625 -0.015625 -1.34375 0.3125q-0.578125 0.328125 -0.96875 0.875q-0.390625 0.546875 -0.625 1.21875q-0.234375 0.671875 -0.328125 1.34375l-0.03125 0.1875z" fill-rule="nonzero"></path><path fill="#f3f3f3" d="m573.99475 26.671917l249.32281 0l0 41.322834l-249.32281 0z" fill-rule="nonzero"></path><path stroke="#000000" stroke-width="1.0" stroke-linejoin="round" stroke-linecap="butt" d="m573.99475 26.671917l249.32281 0l0 41.322834l-249.32281 0z" fill-rule="nonzero"></path><path fill="#000000" d="m663.68585 53.591915l-1.59375 0l1.09375 -6.25l-5.375 0l-1.078125 6.25l-1.578125 0l2.34375 -13.515625l1.578125 0l-1.015625 5.8125l5.375 0l1.0 -5.8125l1.59375 0l-2.34375 13.515625zm9.21521 0q-0.078125 -0.28125 -0.078125 -0.546875q0 -0.265625 0.03125 -0.546875q-0.65625 0.578125 -1.4375 0.9375q-0.78125 0.34375 -1.671875 0.328125q-0.640625 0 -1.203125 -0.203125q-0.546875 -0.203125 -0.96875 -0.578125q-0.40625 -0.375 -0.640625 -0.90625q-0.21875 -0.53125 -0.1875 -1.1875q0.03125 -0.65625 0.25 -1.15625q0.234375 -0.5 0.59375 -0.875q0.375 -0.375 0.84375 -0.625q0.46875 -0.265625 1.0 -0.421875q0.546875 -0.171875 1.109375 -0.234375q0.578125 -0.078125 1.125 -0.078125l1.921875 0l0.109375 -0.796875q0.0625 -0.46875 -0.0625 -0.828125q-0.125 -0.359375 -0.390625 -0.609375q-0.25 -0.25 -0.640625 -0.375q-0.375 -0.140625 -0.828125 -0.140625q-0.390625 -0.015625 -0.78125 0.078125q-0.375 0.09375 -0.703125 0.296875q-0.3125 0.1875 -0.546875 0.484375q-0.234375 0.296875 -0.328125 0.71875l-1.671875 0.015625q0.078125 -0.765625 0.484375 -1.328125q0.40625 -0.5625 1.0 -0.921875q0.609375 -0.375 1.3125 -0.5625q0.71875 -0.1875 1.40625 -0.171875q0.765625 0.015625 1.421875 0.25q0.65625 0.21875 1.125 0.65625q0.46875 0.421875 0.703125 1.046875q0.25 0.625 0.171875 1.421875l-0.78125 4.671875q-0.09375 0.515625 -0.09375 1.03125q0 0.5 0.109375 1.0l-0.015625 0.15625l-1.6875 0zm-2.828125 -1.296875q0.890625 0.015625 1.65625 -0.40625q0.765625 -0.421875 1.28125 -1.125l0.375 -2.046875l-1.453125 0q-0.5 0 -1.078125 0.0625q-0.578125 0.0625 -1.09375 0.265625q-0.515625 0.203125 -0.875 0.59375q-0.359375 0.375 -0.4375 1.0q-0.046875 0.390625 0.046875 0.703125q0.109375 0.296875 0.328125 0.515625q0.234375 0.203125 0.546875 0.3125q0.3125 0.109375 0.703125 0.125zm14.277771 -1.4375q0.046875 -0.421875 -0.15625 -0.703125q-0.1875 -0.28125 -0.515625 -0.453125q-0.3125 -0.171875 -0.6875 -0.28125q-0.375 -0.109375 -0.6875 -0.171875q-0.5625 -0.140625 -1.171875 -0.34375q-0.59375 -0.21875 -1.09375 -0.53125q-0.5 -0.328125 -0.8125 -0.8125q-0.3125 -0.484375 -0.28125 -1.1875q0.015625 -0.515625 0.203125 -0.9375q0.203125 -0.421875 0.5 -0.75q0.3125 -0.34375 0.71875 -0.59375q0.40625 -0.25 0.84375 -0.40625q0.453125 -0.171875 0.921875 -0.25q0.46875 -0.078125 0.921875 -0.0625q0.703125 0.015625 1.359375 0.21875q0.65625 0.203125 1.140625 0.59375q0.5 0.390625 0.78125 0.984375q0.296875 0.578125 0.28125 1.34375l-1.65625 -0.015625q0 -0.40625 -0.15625 -0.71875q-0.15625 -0.328125 -0.4375 -0.546875q-0.265625 -0.21875 -0.625 -0.328125q-0.359375 -0.109375 -0.75 -0.109375q-0.375 -0.015625 -0.765625 0.078125q-0.390625 0.078125 -0.734375 0.265625q-0.34375 0.171875 -0.59375 0.46875q-0.234375 0.28125 -0.296875 0.703125q-0.046875 0.421875 0.140625 0.6875q0.1875 0.25 0.484375 0.421875q0.3125 0.15625 0.671875 0.25q0.375 0.09375 0.6875 0.15625q0.375 0.09375 0.78125 0.21875q0.40625 0.109375 0.796875 0.28125q0.390625 0.15625 0.734375 0.375q0.359375 0.21875 0.609375 0.515625q0.25 0.296875 0.390625 0.671875q0.140625 0.375 0.125 0.859375q-0.046875 0.796875 -0.453125 1.390625q-0.40625 0.578125 -1.015625 0.953125q-0.609375 0.359375 -1.359375 0.53125q-0.734375 0.171875 -1.453125 0.15625q-0.734375 -0.015625 -1.4375 -0.21875q-0.6875 -0.21875 -1.21875 -0.625q-0.53125 -0.421875 -0.859375 -1.03125q-0.3125 -0.609375 -0.296875 -1.40625l1.671875 0q0 0.484375 0.171875 0.84375q0.1875 0.34375 0.484375 0.578125q0.296875 0.21875 0.6875 0.34375q0.40625 0.109375 0.859375 0.109375q0.375 0.015625 0.78125 -0.0625q0.421875 -0.078125 0.796875 -0.25q0.375 -0.171875 0.640625 -0.46875q0.265625 -0.296875 0.328125 -0.734375zm7.02771 -5.796875q0.3125 -0.375 0.65625 -0.6875q0.359375 -0.3125 0.765625 -0.53125q0.40625 -0.234375 0.859375 -0.359375q0.453125 -0.125 0.953125 -0.109375q0.84375 0.015625 1.421875 0.34375q0.578125 0.3125 0.90625 0.859375q0.34375 0.53125 0.453125 1.234375q0.109375 0.703125 0.03125 1.46875l-1.0625 6.3125l-1.671875 0l1.0625 -6.34375q0.046875 -0.5 -0.015625 -0.921875q-0.046875 -0.4375 -0.25 -0.765625q-0.203125 -0.328125 -0.5625 -0.515625q-0.359375 -0.1875 -0.90625 -0.21875q-0.421875 0 -0.8125 0.109375q-0.375 0.109375 -0.734375 0.3125q-0.34375 0.1875 -0.65625 0.46875q-0.3125 0.265625 -0.5625 0.578125l-1.28125 7.296875l-1.671875 0l2.484375 -14.25l1.671875 0l-1.078125 5.71875zm14.37146 8.53125q-0.078125 -0.28125 -0.078125 -0.546875q0 -0.265625 0.03125 -0.546875q-0.65625 0.578125 -1.4375 0.9375q-0.78125 0.34375 -1.671875 0.328125q-0.64056396 0 -1.203064 -0.203125q-0.546875 -0.203125 -0.96875 -0.578125q-0.40625 -0.375 -0.640625 -0.90625q-0.21875 -0.53125 -0.1875 -1.1875q0.03125 -0.65625 0.25 -1.15625q0.234375 -0.5 0.59375 -0.875q0.375 -0.375 0.84375 -0.625q0.46875 -0.265625 0.99993896 -0.421875q0.546875 -0.171875 1.109375 -0.234375q0.578125 -0.078125 1.125 -0.078125l1.921875 0l0.109375 -0.796875q0.0625 -0.46875 -0.0625 -0.828125q-0.125 -0.359375 -0.390625 -0.609375q-0.25 -0.25 -0.640625 -0.375q-0.375 -0.140625 -0.828125 -0.140625q-0.390625 -0.015625 -0.78125 0.078125q-0.375 0.09375 -0.703125 0.296875q-0.3125 0.1875 -0.546875 0.484375q-0.234375 0.296875 -0.328125 0.71875l-1.671814 0.015625q0.078125 -0.765625 0.484375 -1.328125q0.40625 -0.5625 0.99993896 -0.921875q0.609375 -0.375 1.3125 -0.5625q0.71875 -0.1875 1.40625 -0.171875q0.765625 0.015625 1.421875 0.25q0.65625 0.21875 1.125 0.65625q0.46875 0.421875 0.703125 1.046875q0.25 0.625 0.171875 1.421875l-0.78125 4.671875q-0.09375 0.515625 -0.09375 1.03125q0 0.5 0.109375 1.0l-0.015625 0.15625l-1.6875 0zm-2.828125 -1.296875q0.890625 0.015625 1.65625 -0.40625q0.765625 -0.421875 1.28125 -1.125l0.375 -2.046875l-1.453125 0q-0.5 0 -1.078125 0.0625q-0.578125 0.0625 -1.09375 0.265625q-0.515625 0.203125 -0.87493896 0.59375q-0.359375 0.375 -0.4375 1.0q-0.046875 0.390625 0.046875 0.703125q0.109375 0.296875 0.328125 0.515625q0.234375 0.203125 0.54681396 0.3125q0.3125 0.109375 0.703125 0.125zm16.402771 -3.671875q-0.09375 0.625 -0.265625 1.25q-0.171875 0.625 -0.4375 1.203125q-0.265625 0.578125 -0.640625 1.078125q-0.375 0.5 -0.859375 0.875q-0.46875 0.375 -1.0625 0.578125q-0.59375 0.203125 -1.3125 0.171875q-0.8125 -0.015625 -1.5 -0.328125q-0.6875 -0.328125 -1.140625 -1.015625l-0.34375 1.15625l-1.546875 0l2.46875 -14.25l1.6875 0l-1.015625 5.296875q0.578125 -0.640625 1.296875 -0.96875q0.71875 -0.328125 1.59375 -0.296875q0.671875 0.015625 1.1875 0.234375q0.515625 0.21875 0.875 0.59375q0.375 0.375 0.59375 0.875q0.234375 0.484375 0.34375 1.046875q0.125 0.5625 0.140625 1.15625q0.015625 0.59375 -0.046875 1.15625l-0.015625 0.1875zm-1.65625 -0.203125q0.0625 -0.5625 0.03125 -1.1875q-0.015625 -0.625 -0.21875 -1.15625q-0.1875 -0.53125 -0.609375 -0.875q-0.40625 -0.359375 -1.140625 -0.375q-0.421875 -0.015625 -0.796875 0.109375q-0.375 0.109375 -0.703125 0.3125q-0.3125 0.203125 -0.59375 0.5q-0.265625 0.28125 -0.5 0.609375l-0.75 4.421875q0.25 0.703125 0.75 1.125q0.515625 0.40625 1.28125 0.421875q0.765625 0.015625 1.328125 -0.3125q0.578125 -0.328125 0.96875 -0.859375q0.390625 -0.546875 0.609375 -1.203125q0.21875 -0.671875 0.3125 -1.328125l0.03125 -0.203125zm6.21521 -9.078125l5.0 0l-2.21875 12.765625l3.171875 0l-0.265625 1.484375l-8.15625 0l0.265625 -1.484375l3.296875 0l1.96875 -11.265625l-3.328125 0l0.265625 -1.5zm12.637146 14.4375q-1.03125 -0.015625 -1.8125 -0.40625q-0.765625 -0.40625 -1.265625 -1.0625q-0.5 -0.671875 -0.71875 -1.53125q-0.21875 -0.859375 -0.140625 -1.828125l0.046875 -0.390625q0.078125 -0.671875 0.296875 -1.3125q0.21875 -0.640625 0.546875 -1.21875q0.34375 -0.59375 0.78125 -1.078125q0.453125 -0.5 1.0 -0.859375q0.5625 -0.359375 1.203125 -0.546875q0.65625 -0.203125 1.359375 -0.171875q1.046875 0.015625 1.75 0.4375q0.71875 0.421875 1.140625 1.109375q0.421875 0.6875 0.5625 1.578125q0.140625 0.875 0.015625 1.796875l-0.125 0.765625l-6.90625 0q-0.078125 0.609375 0.03125 1.203125q0.125 0.578125 0.421875 1.046875q0.296875 0.46875 0.78125 0.75q0.5 0.28125 1.171875 0.3125q0.875 0.015625 1.609375 -0.34375q0.734375 -0.375 1.328125 -0.984375l0.96875 0.8125q-0.34375 0.484375 -0.8125 0.859375q-0.453125 0.359375 -0.984375 0.609375q-0.515625 0.234375 -1.09375 0.34375q-0.578125 0.109375 -1.15625 0.109375zm1.21875 -9.0q-0.65625 -0.03125 -1.171875 0.21875q-0.515625 0.25 -0.921875 0.65625q-0.40625 0.40625 -0.703125 0.9375q-0.296875 0.53125 -0.484375 1.0625l5.234375 0.015625l0.03125 -0.171875q0.078125 -0.5 -0.015625 -0.984375q-0.078125 -0.484375 -0.34375 -0.859375q-0.265625 -0.390625 -0.671875 -0.625q-0.40625 -0.234375 -0.953125 -0.25z" fill-rule="nonzero"></path><path fill="#000000" fill-opacity="0.0" d="m621.99475 219.33858l76.66144 -151.33858" fill-rule="nonzero"></path><path stroke="#000000" stroke-width="1.0" stroke-linejoin="round" stroke-linecap="butt" d="m621.99475 219.33858l75.11279 -148.28136" fill-rule="evenodd"></path><path fill="#000000" stroke="#000000" stroke-width="1.0" stroke-linecap="butt" d="m697.10754 71.05722l0.49499512 1.5113983l0.39300537 -3.2644882l-2.399414 2.2481232z" fill-rule="evenodd"></path><path fill="#000000" fill-opacity="0.0" d="m222.01575 221.33858l-68.66142 -153.35432" fill-rule="nonzero"></path><path stroke="#000000" stroke-width="1.0" stroke-linejoin="round" stroke-linecap="butt" d="m222.01575 221.33858l-66.20958 -147.87816" fill-rule="evenodd"></path><path fill="#000000" stroke="#000000" stroke-width="1.0" stroke-linecap="butt" d="m157.3137 72.78545l-3.3619843 -3.4669342l0.34692383 4.8168716z" fill-rule="evenodd"></path><path fill="#000000" fill-opacity="0.0" d="m0.70341206 112.3727l854.04724 0" fill-rule="nonzero"></path><path stroke="#000000" stroke-width="1.0" stroke-linejoin="round" stroke-linecap="butt" stroke-dasharray="1.0,3.0" d="m0.70341206 112.3727l854.04724 0" fill-rule="nonzero"></path><path fill="#000000" fill-opacity="0.0" d="m-5.8923883 -5.1916013l103.244095 0l0 31.590551l-103.244095 0z" fill-rule="nonzero"></path><path fill="#000000" d="m5.5919867 10.9727745q0.1875 0 0.375 -0.0625q0.1875 -0.0625 0.328125 -0.171875q0.15625 -0.109375 0.234375 -0.25q0.09375 -0.15625 0.09375 -0.328125l0.6875 0q0 0.28125 -0.15625 0.53125q-0.140625 0.25 -0.375 0.453125q-0.234375 0.1875 -0.546875 0.3125q-0.3125 0.109375 -0.640625 0.109375q-0.484375 0 -0.84375 -0.171875q-0.359375 -0.171875 -0.609375 -0.453125q-0.234375 -0.296875 -0.359375 -0.671875q-0.109375 -0.390625 -0.109375 -0.8125l0 -0.171875q0 -0.40625 0.109375 -0.78125q0.125 -0.390625 0.359375 -0.6875005q0.25 -0.296875 0.609375 -0.46875q0.359375 -0.171875 0.84375 -0.171875q0.375 0 0.6875 0.125q0.3125 0.125 0.53125 0.328125q0.234375 0.203125 0.359375 0.48437548q0.140625 0.28125 0.140625 0.59375l-0.6875 0q0 -0.1875 -0.078125 -0.359375q-0.078125 -0.171875 -0.21875 -0.296875q-0.140625 -0.12500048 -0.328125 -0.20312548q-0.1875 -0.078125 -0.40625 -0.078125q-0.34375 0 -0.578125 0.140625q-0.21875 0.14062548 -0.359375 0.35937548q-0.140625 0.203125 -0.203125 0.484375q-0.0625 0.265625 -0.0625 0.53125l0 0.171875q0 0.28125 0.0625 0.546875q0.0625 0.265625 0.203125 0.484375q0.140625 0.21875 0.359375 0.359375q0.234375 0.125 0.578125 0.125zm2.8007812 -1.640625q0 -0.453125 0.125 -0.84375q0.140625 -0.390625 0.375 -0.6718755q0.25 -0.296875 0.609375 -0.46875q0.359375 -0.171875 0.796875 -0.171875q0.453125 0 0.8125 0.171875q0.359375 0.171875 0.609375 0.46875q0.25 0.28125048 0.375 0.6718755q0.140625 0.390625 0.140625 0.84375l0 0.09375q0 0.453125 -0.140625 0.84375q-0.125 0.390625 -0.375 0.6875q-0.25 0.28125 -0.609375 0.453125q-0.359375 0.15625 -0.796875 0.15625q-0.453125 0 -0.8125 -0.15625q-0.359375 -0.171875 -0.609375 -0.453125q-0.234375 -0.296875 -0.375 -0.6875q-0.125 -0.390625 -0.125 -0.84375l0 -0.09375zm0.71875 0.09375q0 0.3125 0.0625 0.59375q0.078125 0.28125 0.234375 0.5q0.15625 0.203125 0.375 0.328125q0.234375 0.125 0.53125 0.125q0.296875 0 0.515625 -0.125q0.234375 -0.125 0.375 -0.328125q0.15625 -0.21875 0.21875 -0.5q0.078125 -0.28125 0.078125 -0.59375l0 -0.09375q0 -0.3125 -0.078125 -0.59375q-0.0625 -0.28125 -0.21875 -0.484375q-0.15625 -0.21875 -0.375 -0.34375048q-0.21875 -0.140625 -0.53125 -0.140625q-0.296875 0 -0.515625 0.140625q-0.21875 0.12500048 -0.375 0.34375048q-0.15625 0.203125 -0.234375 0.484375q-0.0625 0.28125 -0.0625 0.59375l0 0.09375zm4.3945312 -3.9375005l2.15625 0l0 5.3750005l1.374999 0l0 0.625l-3.531249 0l0 -0.625l1.4375 0l0 -4.7500005l-1.4375 0l0 -0.625zm4.8007803 0l2.15625 0l0 5.3750005l1.375 0l0 0.625l-3.53125 0l0 -0.625l1.4375 0l0 -4.7500005l-1.4375 0l0 -0.625zm6.5507812 6.0781255q-0.4375 0 -0.8125 -0.15625q-0.375 -0.15625 -0.640625 -0.421875q-0.265625 -0.28125 -0.421875 -0.65625q-0.140625 -0.375 -0.140625 -0.8125l0 -0.15625q0 -0.515625 0.15625 -0.921875q0.171875 -0.40625 0.4375 -0.6875005q0.28125 -0.28125 0.625 -0.421875q0.34375 -0.15625 0.703125 -0.15625q0.453125 0 0.796875 0.171875q0.34375 0.15625 0.5625 0.4375q0.234375 0.26562548 0.34375 0.6562505q0.109375 0.375 0.109375 0.8125l0 0.328125l-3.015625 0q0.015625 0.28125 0.109375 0.546875q0.109375 0.25 0.28125 0.4375q0.171875 0.1875 0.40625 0.296875q0.25 0.109375 0.546875 0.109375q0.375 0 0.671875 -0.15625q0.3125 -0.15625 0.515625 -0.40625l0.4375 0.34375q-0.109375 0.15625 -0.265625 0.3125q-0.15625 0.140625 -0.375 0.25q-0.203125 0.109375 -0.46875 0.171875q-0.25 0.078125 -0.5625 0.078125zm-0.09375 -3.7968755q-0.21875 0 -0.421875 0.09375q-0.1875 0.078125 -0.34375 0.23437548q-0.15625 0.140625 -0.265625 0.375q-0.109375 0.21875 -0.140625 0.515625l2.265625 0l0 -0.0625q-0.015625 -0.203125 -0.078125 -0.40625q-0.0625 -0.21875 -0.203125 -0.375q-0.125 -0.17187548 -0.328125 -0.26562548q-0.203125 -0.109375 -0.484375 -0.109375zm4.8320312 3.2031255q0.1875 0 0.375 -0.0625q0.1875 -0.0625 0.328125 -0.171875q0.15625 -0.109375 0.234375 -0.25q0.09375 -0.15625 0.09375 -0.328125l0.6875 0q0 0.28125 -0.15625 0.53125q-0.140625 0.25 -0.375 0.453125q-0.234375 0.1875 -0.546875 0.3125q-0.3125 0.109375 -0.640625 0.109375q-0.484375 0 -0.84375 -0.171875q-0.359375 -0.171875 -0.609375 -0.453125q-0.234375 -0.296875 -0.359375 -0.671875q-0.109375 -0.390625 -0.109375 -0.8125l0 -0.171875q0 -0.40625 0.109375 -0.78125q0.125 -0.390625 0.359375 -0.6875005q0.25 -0.296875 0.609375 -0.46875q0.359375 -0.171875 0.84375 -0.171875q0.375 0 0.6875 0.125q0.3125 0.125 0.53125 0.328125q0.234375 0.203125 0.359375 0.48437548q0.140625 0.28125 0.140625 0.59375l-0.6875 0q0 -0.1875 -0.078125 -0.359375q-0.078125 -0.171875 -0.21875 -0.296875q-0.140625 -0.12500048 -0.328125 -0.20312548q-0.1875 -0.078125 -0.40625 -0.078125q-0.34375 0 -0.578125 0.140625q-0.21875 0.14062548 -0.359375 0.35937548q-0.140625 0.203125 -0.203125 0.484375q-0.0625 0.265625 -0.0625 0.53125l0 0.171875q0 0.28125 0.0625 0.546875q0.0625 0.265625 0.203125 0.484375q0.140625 0.21875 0.359375 0.359375q0.234375 0.125 0.578125 0.125zm4.707033 -4.7343755l0 1.015625l1.609375 0l0 0.5625l-1.609375 0l0 2.2968755q0 0.25 0.0625 0.40625q0.0625 0.15625 0.171875 0.265625q0.109375 0.09375 0.25 0.140625q0.140625 0.03125 0.3125 0.03125q0.109375 0 0.234375 -0.015625q0.125 -0.015625 0.234375 -0.03125q0.125 -0.03125 0.234375 -0.046875q0.109375 -0.015625 0.171875 -0.03125l0.09375 0.5q-0.078125 0.0625 -0.21875 0.109375q-0.125 0.03125 -0.28125 0.0625q-0.140625 0.03125 -0.3125 0.046875q-0.171875 0.015625 -0.34375 0.015625q-0.28125 0 -0.53125 -0.078125q-0.234375 -0.078125 -0.421875 -0.25q-0.171875 -0.1875 -0.28125 -0.453125q-0.09375 -0.28125 -0.09375 -0.671875l0 -2.2968755l-1.109375 0l0 -0.5625l1.109375 0l0 -1.015625l0.71875 0zm3.2070312 1.015625l2.15625 0l0 3.6093755l1.375 0l0 0.625l-3.53125 0l0 -0.625l1.4375 0l0 -2.9687505l-1.4375 0l0 -0.640625zm1.34375 -1.109375q0 -0.171875 0.109375 -0.296875q0.109375 -0.125 0.328125 -0.125q0.203125 0 0.3125 0.125q0.109375 0.125 0.109375 0.296875q0 0.1875 -0.109375 0.3125q-0.109375 0.109375 -0.3125 0.109375q-0.21875 0 -0.328125 -0.109375q-0.109375 -0.125 -0.109375 -0.3125zm3.1445312 3.1875005q0 -0.453125 0.125 -0.84375q0.140625 -0.390625 0.375 -0.6718755q0.25 -0.296875 0.609375 -0.46875q0.359375 -0.171875 0.796875 -0.171875q0.453125 0 0.8125 0.171875q0.359375 0.171875 0.609375 0.46875q0.25 0.28125048 0.375 0.6718755q0.140625 0.390625 0.140625 0.84375l0 0.09375q0 0.453125 -0.140625 0.84375q-0.125 0.390625 -0.375 0.6875q-0.25 0.28125 -0.609375 0.453125q-0.359375 0.15625 -0.796875 0.15625q-0.453125 0 -0.8125 -0.15625q-0.359375 -0.171875 -0.609375 -0.453125q-0.234375 -0.296875 -0.375 -0.6875q-0.125 -0.390625 -0.125 -0.84375l0 -0.09375zm0.71875 0.09375q0 0.3125 0.0625 0.59375q0.078125 0.28125 0.234375 0.5q0.15625 0.203125 0.375 0.328125q0.234375 0.125 0.53125 0.125q0.296875 0 0.515625 -0.125q0.234375 -0.125 0.375 -0.328125q0.15625 -0.21875 0.21875 -0.5q0.078125 -0.28125 0.078125 -0.59375l0 -0.09375q0 -0.3125 -0.078125 -0.59375q-0.0625 -0.28125 -0.21875 -0.484375q-0.15625 -0.21875 -0.375 -0.34375048q-0.21875 -0.140625 -0.53125 -0.140625q-0.296875 0 -0.515625 0.140625q-0.21875 0.12500048 -0.375 0.34375048q-0.15625 0.203125 -0.234375 0.484375q-0.0625 0.28125 -0.0625 0.59375l0 0.09375zm4.9257812 -2.1718755l0.046875 0.625q0.234375 -0.328125 0.5625 -0.5q0.34375 -0.1875 0.765625 -0.203125q0.328125 0 0.59375 0.09375q0.28125 0.09375 0.46875 0.296875q0.1875 0.203125 0.28125 0.5156255q0.109375 0.296875 0.109375 0.71875l0 2.6875l-0.71875 0l0 -2.671875q0 -0.28125 -0.0625 -0.46875q-0.0625 -0.203125 -0.1875 -0.3125q-0.125 -0.12500048 -0.296875 -0.17187548q-0.171875 -0.0625 -0.40625 -0.0625q-0.359375 0 -0.640625 0.1875q-0.28125 0.17187548 -0.4375 0.46875048l0 3.03125l-0.71875 0l0 -4.2343755l0.640625 0zm6.9570312 3.1093755q0 -0.125 -0.046875 -0.21875q-0.046875 -0.109375 -0.171875 -0.1875q-0.125 -0.09375 -0.328125 -0.171875q-0.1875 -0.078125 -0.484375 -0.125q-0.359375 -0.078125 -0.671875 -0.1875q-0.296875 -0.109375 -0.515625 -0.25q-0.203125 -0.140625 -0.328125 -0.34375q-0.109375 -0.203125 -0.109375 -0.453125q0 -0.265625 0.125 -0.48437548q0.125 -0.234375 0.34375 -0.390625q0.21875 -0.171875 0.515625 -0.265625q0.296875 -0.109375 0.671875 -0.109375q0.390625 0 0.703125 0.109375q0.3125 0.09375 0.53125 0.28125q0.21875 0.171875 0.328125 0.421875q0.125 0.23437548 0.125 0.5156255l-0.71875 0q0 -0.140625 -0.078125 -0.265625q-0.0625 -0.140625 -0.1875 -0.234375q-0.125 -0.10937548 -0.3125 -0.17187548q-0.171875 -0.0625 -0.390625 -0.0625q-0.234375 0 -0.40625 0.0625q-0.171875 0.046875 -0.296875 0.140625q-0.109375 0.07812548 -0.171875 0.18750048q-0.0625 0.109375 -0.0625 0.234375q0 0.125 0.046875 0.234375q0.046875 0.09375 0.15625 0.171875q0.125 0.078125 0.3125 0.140625q0.203125 0.0625 0.5 0.109375q0.390625 0.09375 0.6875 0.203125q0.3125 0.09375 0.515625 0.25q0.21875 0.15625 0.328125 0.359375q0.125 0.1875 0.125 0.453125q0 0.28125 -0.140625 0.515625q-0.125 0.21875 -0.359375 0.390625q-0.21875 0.15625 -0.53125 0.25q-0.3125 0.09375 -0.6875 0.09375q-0.4375 0 -0.78125 -0.109375q-0.328125 -0.125 -0.5625 -0.3125q-0.21875 -0.1875 -0.34375 -0.4375q-0.125 -0.25 -0.125 -0.515625l0.71875 0q0.015625 0.21875 0.109375 0.375q0.109375 0.140625 0.265625 0.234375q0.15625 0.09375 0.34375 0.140625q0.1875 0.03125 0.375 0.03125q0.453125 0 0.71875 -0.15625q0.265625 -0.171875 0.265625 -0.453125zm3.2539062 0.65625q0 -0.125 0.03125 -0.21875q0.046875 -0.109375 0.109375 -0.171875q0.078125 -0.078125 0.171875 -0.125q0.109375 -0.046875 0.25 -0.046875q0.140625 0 0.25 0.046875q0.109375 0.046875 0.171875 0.125q0.078125 0.0625 0.109375 0.171875q0.046875 0.09375 0.046875 0.21875q0 0.109375 -0.046875 0.21875q-0.03125 0.09375 -0.109375 0.171875q-0.0625 0.0625 -0.171875 0.109375q-0.109375 0.046875 -0.25 0.046875q-0.140625 0 -0.25 -0.046875q-0.09375 -0.046875 -0.171875 -0.109375q-0.0625 -0.078125 -0.109375 -0.171875q-0.03125 -0.109375 -0.03125 -0.21875zm6.3164062 0.46875q-0.03125 -0.078125 -0.0625 -0.203125q-0.03125 -0.125 -0.03125 -0.265625q-0.109375 0.109375 -0.25 0.21875q-0.140625 0.09375 -0.296875 0.171875q-0.15625 0.0625 -0.34375 0.109375q-0.1875 0.046875 -0.390625 0.046875q-0.34375 0 -0.609375 -0.09375q-0.265625 -0.109375 -0.46875 -0.265625q-0.1875 -0.171875 -0.296875 -0.390625q-0.09375 -0.234375 -0.09375 -0.5q0 -0.34375 0.140625 -0.609375q0.140625 -0.265625 0.390625 -0.4375q0.25 -0.171875 0.609375 -0.25q0.359375 -0.09375 0.796875 -0.09375l0.796875 0l0 -0.328125q0 -0.203125 -0.078125 -0.34375q-0.0625 -0.15625 -0.203125 -0.26562548q-0.125 -0.109375 -0.3125 -0.15625q-0.171875 -0.0625 -0.40625 -0.0625q-0.21875 0 -0.390625 0.0625q-0.171875 0.046875 -0.296875 0.140625q-0.109375 0.07812548 -0.171875 0.20312548q-0.0625 0.125 -0.0625 0.25l-0.71875 0q0 -0.21875 0.109375 -0.43750048q0.125 -0.234375 0.328125 -0.40625q0.21875 -0.1875 0.53125 -0.296875q0.3125 -0.109375 0.703125 -0.109375q0.359375 0 0.671875 0.09375q0.3125 0.09375 0.53125 0.265625q0.234375 0.171875 0.359375 0.4375q0.125 0.26562548 0.125 0.6250005l0 1.96875q0 0.203125 0.03125 0.453125q0.046875 0.234375 0.125 0.40625l0 0.0625l-0.765625 0zm-1.265625 -0.546875q0.203125 0 0.390625 -0.046875q0.1875 -0.0625 0.328125 -0.15625q0.15625 -0.09375 0.265625 -0.203125q0.109375 -0.125 0.171875 -0.25l0 -0.84375l-0.671875 0q-0.640625 0 -1.0 0.1875q-0.34375 0.1875 -0.34375 0.578125q0 0.15625 0.046875 0.296875q0.0625 0.125 0.171875 0.234375q0.109375 0.09375 0.265625 0.15625q0.15625 0.046875 0.375 0.046875zm6.8789062 -1.515625q0 0.453125 -0.109375 0.84375q-0.109375 0.390625 -0.328125 0.6875q-0.203125 0.28125 -0.515625 0.453125q-0.3125 0.15625 -0.71875 0.15625q-0.40625 0 -0.703125 -0.140625q-0.296875 -0.15625 -0.5 -0.421875l-0.046875 0.484375l-0.65625 0l0 -6.0000005l0.71875 0l0 2.21875q0.203125 -0.25 0.5 -0.390625q0.296875 -0.140625 0.6875 -0.140625q0.40625 0 0.71875 0.171875q0.3125 0.15625 0.515625 0.4375q0.21875 0.28125048 0.328125 0.6875005q0.109375 0.390625 0.109375 0.859375l0 0.09375zm-0.71875 -0.09375q0 -0.296875 -0.0625 -0.578125q-0.0625 -0.28125 -0.203125 -0.484375q-0.125 -0.21875 -0.34375 -0.34375048q-0.21875 -0.125 -0.53125 -0.125q-0.1875 0 -0.34375 0.046875q-0.15625 0.046875 -0.28125 0.140625q-0.109375 0.07812548 -0.21875 0.20312548q-0.09375 0.109375 -0.15625 0.25l0 1.859375q0.078125 0.140625 0.171875 0.265625q0.09375 0.109375 0.21875 0.203125q0.125 0.078125 0.28125 0.140625q0.15625 0.046875 0.34375 0.046875q0.296875 0 0.5 -0.125q0.21875 -0.125 0.34375 -0.328125q0.140625 -0.21875 0.203125 -0.5q0.078125 -0.28125 0.078125 -0.578125l0 -0.09375zm3.7382812 1.640625q0.1875 0 0.375 -0.0625q0.1875 -0.0625 0.328125 -0.171875q0.15625 -0.109375 0.234375 -0.25q0.09375 -0.15625 0.09375 -0.328125l0.6875 0q0 0.28125 -0.15625 0.53125q-0.140625 0.25 -0.375 0.453125q-0.234375 0.1875 -0.546875 0.3125q-0.3125 0.109375 -0.640625 0.109375q-0.484375 0 -0.84375 -0.171875q-0.359375 -0.171875 -0.609375 -0.453125q-0.234375 -0.296875 -0.359375 -0.671875q-0.109375 -0.390625 -0.109375 -0.8125l0 -0.171875q0 -0.40625 0.109375 -0.78125q0.125 -0.390625 0.359375 -0.6875005q0.25 -0.296875 0.609375 -0.46875q0.359375 -0.171875 0.84375 -0.171875q0.375 0 0.6875 0.125q0.3125 0.125 0.53125 0.328125q0.234375 0.203125 0.359375 0.48437548q0.140625 0.28125 0.140625 0.59375l-0.6875 0q0 -0.1875 -0.078125 -0.359375q-0.078125 -0.171875 -0.21875 -0.296875q-0.140625 -0.12500048 -0.328125 -0.20312548q-0.1875 -0.078125 -0.40625 -0.078125q-0.34375 0 -0.578125 0.140625q-0.21875 0.14062548 -0.359375 0.35937548q-0.140625 0.203125 -0.203125 0.484375q-0.0625 0.265625 -0.0625 0.53125l0 0.171875q0 0.28125 0.0625 0.546875q0.0625 0.265625 0.203125 0.484375q0.140625 0.21875 0.359375 0.359375q0.234375 0.125 0.578125 0.125z" fill-rule="nonzero"></path><path fill="#000000" fill-opacity="0.0" d="m-5.8923883 112.3727l103.244095 0l0 31.590553l-103.244095 0z" fill-rule="nonzero"></path><path fill="#000000" d="m7.3732367 126.990204q0 0.453125 -0.109375 0.84375q-0.109375 0.390625 -0.328125 0.6875q-0.203125 0.28125 -0.515625 0.453125q-0.3125 0.15625 -0.71875 0.15625q-0.40625 0 -0.703125 -0.140625q-0.296875 -0.15625 -0.5 -0.421875l-0.046875 0.484375l-0.65625 0l0 -6.0l0.71875 0l0 2.21875q0.203125 -0.25 0.5 -0.390625q0.296875 -0.140625 0.6875 -0.140625q0.40625 0 0.71875 0.171875q0.3125 0.15625 0.515625 0.4375q0.21875 0.28125 0.328125 0.6875q0.109375 0.390625 0.109375 0.859375l0 0.09375zm-0.71875 -0.09375q0 -0.296875 -0.0625 -0.578125q-0.0625 -0.28125 -0.203125 -0.484375q-0.125 -0.21875 -0.34375 -0.34375q-0.21875 -0.125 -0.53125 -0.125q-0.1875 0 -0.34375 0.046875q-0.15625 0.046875 -0.28125 0.140625q-0.109375 0.078125 -0.21875 0.203125q-0.09375 0.109375 -0.15625 0.25l0 1.859375q0.078125 0.140625 0.171875 0.265625q0.09375 0.109375 0.21875 0.203125q0.125 0.078125 0.28125 0.140625q0.15625 0.046875 0.34375 0.046875q0.296875 0 0.5 -0.125q0.21875 -0.125 0.34375 -0.328125q0.140625 -0.21875 0.203125 -0.5q0.078125 -0.28125 0.078125 -0.578125l0 -0.09375zm2.0507812 -2.078125l2.15625 0l0 3.609375l1.375 0l0 0.625l-3.53125 0l0 -0.625l1.4375 0l0 -2.96875l-1.4375 0l0 -0.640625zm1.34375 -1.109375q0 -0.171875 0.109375 -0.296875q0.109375 -0.125 0.328125 -0.125q0.203125 0 0.3125 0.125q0.109375 0.125 0.109375 0.296875q0 0.1875 -0.109375 0.3125q-0.109375 0.109375 -0.3125 0.109375q-0.21875 0 -0.328125 -0.109375q-0.109375 -0.125 -0.109375 -0.3125zm3.2070312 3.1875q0 -0.46875 0.109375 -0.859375q0.125 -0.40625 0.34375 -0.6875q0.21875 -0.28125 0.53125 -0.4375q0.3125 -0.171875 0.703125 -0.171875q0.375 0 0.65625 0.140625q0.296875 0.125 0.49999905 0.359375l0 -2.1875l0.71875 0l0 6.0l-0.65625 0l-0.03125 -0.453125q-0.21874905 0.265625 -0.51562405 0.40625q-0.28125 0.125 -0.671875 0.125q-0.390625 0 -0.703125 -0.15625q-0.3125 -0.171875 -0.53125 -0.453125q-0.21875 -0.296875 -0.34375 -0.6875q-0.109375 -0.390625 -0.109375 -0.84375l0 -0.09375zm0.71875 0.09375q0 0.296875 0.0625 0.578125q0.078125 0.28125 0.203125 0.5q0.140625 0.203125 0.359375 0.328125q0.21875 0.125 0.515625 0.125q0.1875 0 0.328125 -0.046875q0.15625 -0.046875 0.265625 -0.125q0.125 -0.078125 0.21875 -0.1875q0.09374905 -0.109375 0.17187405 -0.25l0 -1.96875q-0.14062405 -0.25 -0.39062405 -0.40625q-0.234375 -0.171875 -0.578125 -0.171875q-0.3125 0 -0.53125 0.125q-0.21875 0.125 -0.359375 0.34375q-0.125 0.203125 -0.203125 0.484375q-0.0625 0.28125 -0.0625 0.578125l0 0.09375zm4.3320303 -2.171875l2.15625 0l0 3.609375l1.375 0l0 0.625l-3.53125 0l0 -0.625l1.4375 0l0 -2.96875l-1.4375 0l0 -0.640625zm1.34375 -1.109375q0 -0.171875 0.109375 -0.296875q0.109375 -0.125 0.328125 -0.125q0.203125 0 0.3125 0.125q0.109375 0.125 0.109375 0.296875q0 0.1875 -0.109375 0.3125q-0.109375 0.109375 -0.3125 0.109375q-0.21875 0 -0.328125 -0.109375q-0.109375 -0.125 -0.109375 -0.3125zm5.1445312 4.828125q0.1875 0 0.375 -0.0625q0.1875 -0.0625 0.328125 -0.171875q0.15625 -0.109375 0.234375 -0.25q0.09375 -0.15625 0.09375 -0.328125l0.6875 0q0 0.28125 -0.15625 0.53125q-0.140625 0.25 -0.375 0.453125q-0.234375 0.1875 -0.546875 0.3125q-0.3125 0.109375 -0.640625 0.109375q-0.484375 0 -0.84375 -0.171875q-0.359375 -0.171875 -0.609375 -0.453125q-0.234375 -0.296875 -0.359375 -0.671875q-0.109375 -0.390625 -0.109375 -0.8125l0 -0.171875q0 -0.40625 0.109375 -0.78125q0.125 -0.390625 0.359375 -0.6875q0.25 -0.296875 0.609375 -0.46875q0.359375 -0.171875 0.84375 -0.171875q0.375 0 0.6875 0.125q0.3125 0.125 0.53125 0.328125q0.234375 0.203125 0.359375 0.484375q0.140625 0.28125 0.140625 0.59375l-0.6875 0q0 -0.1875 -0.078125 -0.359375q-0.078125 -0.171875 -0.21875 -0.296875q-0.140625 -0.125 -0.328125 -0.203125q-0.1875 -0.078125 -0.40625 -0.078125q-0.34375 0 -0.578125 0.140625q-0.21875 0.140625 -0.359375 0.359375q-0.140625 0.203125 -0.203125 0.484375q-0.0625 0.265625 -0.0625 0.53125l0 0.171875q0 0.28125 0.0625 0.546875q0.0625 0.265625 0.203125 0.484375q0.140625 0.21875 0.359375 0.359375q0.234375 0.125 0.578125 0.125zm4.7070312 -4.734375l0 1.015625l1.609375 0l0 0.5625l-1.609375 0l0 2.296875q0 0.25 0.0625 0.40625q0.0625 0.15625 0.171875 0.265625q0.109375 0.09375 0.25 0.140625q0.140625 0.03125 0.3125 0.03125q0.109375 0 0.234375 -0.015625q0.125 -0.015625 0.234375 -0.03125q0.125 -0.03125 0.234375 -0.046875q0.109375 -0.015625 0.171875 -0.03125l0.09375 0.5q-0.078125 0.0625 -0.21875 0.109375q-0.125 0.03125 -0.28125 0.0625q-0.140625 0.03125 -0.3125 0.046875q-0.171875 0.015625 -0.34375 0.015625q-0.28125 0 -0.53125 -0.078125q-0.234375 -0.078125 -0.421875 -0.25q-0.171875 -0.1875 -0.28125 -0.453125q-0.09375 -0.28125 -0.09375 -0.671875l0 -2.296875l-1.109375 0l0 -0.5625l1.109375 0l0 -1.015625l0.71875 0z" fill-rule="nonzero"></path><path fill="#f3f3f3" d="m301.34384 26.671917l249.32285 0l0 41.322834l-249.32285 0z" fill-rule="nonzero"></path><path stroke="#000000" stroke-width="1.0" stroke-linejoin="round" stroke-linecap="butt" d="m301.34384 26.671917l249.32285 0l0 41.322834l-249.32285 0z" fill-rule="nonzero"></path><path fill="#000000" d="m392.41595 40.07629l0.96875 6.75l3.46875 -6.75l2.109375 0l-2.34375 13.515625l-1.625 0l0.9375 -5.46875l1.078125 -5.40625l-3.609375 7.125l-0.96875 0l-1.0 -7.171875l-0.84375 5.609375l-0.90625 5.3125l-1.640625 0l2.34375 -13.515625l2.03125 0zm13.3089905 13.515625q-0.078125 -0.28125 -0.078125 -0.546875q0 -0.265625 0.03125 -0.546875q-0.65625 0.578125 -1.4375 0.9375q-0.78125 0.34375 -1.671875 0.328125q-0.640625 0 -1.203125 -0.203125q-0.546875 -0.203125 -0.96875 -0.578125q-0.40625 -0.375 -0.640625 -0.90625q-0.21875 -0.53125 -0.1875 -1.1875q0.03125 -0.65625 0.25 -1.15625q0.234375 -0.5 0.59375 -0.875q0.375 -0.375 0.84375 -0.625q0.46875 -0.265625 1.0 -0.421875q0.546875 -0.171875 1.109375 -0.234375q0.578125 -0.078125 1.125 -0.078125l1.921875 0l0.109375 -0.796875q0.0625 -0.46875 -0.0625 -0.828125q-0.125 -0.359375 -0.390625 -0.609375q-0.25 -0.25 -0.640625 -0.375q-0.375 -0.140625 -0.828125 -0.140625q-0.390625 -0.015625 -0.78125 0.078125q-0.375 0.09375 -0.703125 0.296875q-0.3125 0.1875 -0.546875 0.484375q-0.234375 0.296875 -0.328125 0.71875l-1.671875 0.015625q0.078125 -0.765625 0.484375 -1.328125q0.40625 -0.5625 1.0 -0.921875q0.609375 -0.375 1.3125 -0.5625q0.71875 -0.1875 1.40625 -0.171875q0.765625 0.015625 1.421875 0.25q0.65625 0.21875 1.125 0.65625q0.46875 0.421875 0.703125 1.046875q0.25 0.625 0.171875 1.421875l-0.78125 4.671875q-0.09375 0.515625 -0.09375 1.03125q0 0.5 0.109375 1.0l-0.015625 0.15625l-1.6875 0zm-2.828125 -1.296875q0.890625 0.015625 1.65625 -0.40625q0.765625 -0.421875 1.28125 -1.125l0.375 -2.046875l-1.453125 0q-0.5 0 -1.078125 0.0625q-0.578125 0.0625 -1.09375 0.265625q-0.515625 0.203125 -0.875 0.59375q-0.359375 0.375 -0.4375 1.0q-0.046875 0.390625 0.046875 0.703125q0.109375 0.296875 0.328125 0.515625q0.234375 0.203125 0.546875 0.3125q0.3125 0.109375 0.703125 0.125zm16.355865 -3.671875q-0.109375 0.921875 -0.4375 1.859375q-0.328125 0.921875 -0.890625 1.671875q-0.5625 0.734375 -1.375 1.203125q-0.796875 0.453125 -1.859375 0.421875q-0.765625 -0.015625 -1.453125 -0.28125q-0.671875 -0.28125 -1.15625 -0.875l-0.90625 4.828125l-1.671875 0l2.40625 -13.890625l1.515625 -0.015625l-0.171875 1.109375q0.59375 -0.640625 1.3125 -0.96875q0.734375 -0.34375 1.609375 -0.3125q0.6875 0.015625 1.1875 0.234375q0.515625 0.21875 0.875 0.59375q0.375 0.375 0.59375 0.875q0.234375 0.484375 0.34375 1.046875q0.125 0.5625 0.140625 1.15625q0.03125 0.578125 -0.046875 1.140625l-0.015625 0.203125zm-1.65625 -0.203125q0.0625 -0.5625 0.03125 -1.1875q-0.03125 -0.625 -0.25 -1.15625q-0.203125 -0.53125 -0.640625 -0.875q-0.421875 -0.359375 -1.140625 -0.375q-0.796875 -0.015625 -1.40625 0.375q-0.59375 0.375 -1.0625 0.984375l-0.84375 4.859375q0.5625 1.296875 1.984375 1.34375q0.78125 0.015625 1.359375 -0.3125q0.578125 -0.34375 0.984375 -0.890625q0.40625 -0.546875 0.640625 -1.21875q0.234375 -0.6875 0.328125 -1.34375l0.015625 -0.203125zm12.605896 0.203125q-0.109375 0.921875 -0.4375 1.859375q-0.328125 0.921875 -0.8906555 1.671875q-0.5625 0.734375 -1.375 1.203125q-0.796875 0.453125 -1.859375 0.421875q-0.765625 -0.015625 -1.453125 -0.28125q-0.671875 -0.28125 -1.15625 -0.875l-0.90625 4.828125l-1.671875 0l2.40625 -13.890625l1.515625 -0.015625l-0.171875 1.109375q0.59375 -0.640625 1.3125 -0.96875q0.734375 -0.34375 1.609375 -0.3125q0.6875 0.015625 1.1875 0.234375q0.515625 0.21875 0.875 0.59375q0.37503052 0.375 0.5937805 0.875q0.234375 0.484375 0.34375 1.046875q0.125 0.5625 0.140625 1.15625q0.03125 0.578125 -0.046875 1.140625l-0.015625 0.203125zm-1.6562805 -0.203125q0.0625 -0.5625 0.03125 -1.1875q-0.03125 -0.625 -0.25 -1.15625q-0.203125 -0.53125 -0.640625 -0.875q-0.421875 -0.359375 -1.140625 -0.375q-0.796875 -0.015625 -1.40625 0.375q-0.59375 0.375 -1.0625 0.984375l-0.84375 4.859375q0.5625 1.296875 1.984375 1.34375q0.78125 0.015625 1.359375 -0.3125q0.578125 -0.34375 0.984375 -0.890625q0.40625 -0.546875 0.640625 -1.21875q0.234375 -0.6875 0.328125 -1.34375l0.015625 -0.203125zm5.527771 -4.859375l5.0 0l-1.484375 8.546875l3.171875 0l-0.265625 1.484375l-8.15625 0l0.265625 -1.484375l3.296875 0l1.234375 -7.0625l-3.3125 0l0.25 -1.484375zm3.5625 -2.609375q0 -0.453125 0.28125 -0.734375q0.28125 -0.296875 0.71875 -0.3125q0.234375 -0.015625 0.40625 0.0625q0.1875 0.078125 0.3125 0.203125q0.140625 0.125 0.203125 0.3125q0.078125 0.1875 0.078125 0.40625q0 0.453125 -0.28125 0.734375q-0.28125 0.265625 -0.71875 0.28125q-0.4375 0.015625 -0.71875 -0.25q-0.28125 -0.265625 -0.28125 -0.703125zm8.6214905 2.59375l-0.203125 1.5q0.296875 -0.375 0.65625 -0.6875q0.359375 -0.328125 0.765625 -0.546875q0.421875 -0.21875 0.875 -0.328125q0.453125 -0.125 0.953125 -0.109375q0.84375 0.015625 1.421875 0.328125q0.578125 0.3125 0.90625 0.84375q0.34375 0.515625 0.453125 1.21875q0.125 0.6875 0.03125 1.453125l-1.0625 6.375l-1.671875 0l1.0625 -6.34375q0.0625 -0.515625 0 -0.953125q-0.046875 -0.4375 -0.25 -0.75q-0.1875 -0.328125 -0.5625 -0.515625q-0.359375 -0.203125 -0.90625 -0.203125q-0.4375 -0.015625 -0.84375 0.109375q-0.390625 0.109375 -0.734375 0.328125q-0.34375 0.203125 -0.640625 0.5q-0.296875 0.28125 -0.546875 0.625l-1.265625 7.203125l-1.671875 0l1.75 -10.03125l1.484375 -0.015625zm8.2933655 5.015625q0.09375 -0.625 0.265625 -1.265625q0.171875 -0.640625 0.4375 -1.21875q0.28125 -0.578125 0.65625 -1.078125q0.375 -0.5 0.859375 -0.875q0.5 -0.375 1.09375 -0.578125q0.609375 -0.203125 1.328125 -0.1875q0.796875 0.015625 1.46875 0.328125q0.671875 0.3125 1.109375 0.96875l0.328125 -1.09375l1.546875 0l-1.671875 9.8125q-0.125 0.9375 -0.53125 1.71875q-0.390625 0.78125 -1.015625 1.328125q-0.609375 0.5625 -1.421875 0.859375q-0.8125 0.296875 -1.78125 0.28125q-0.5 -0.015625 -1.0 -0.140625q-0.484375 -0.109375 -0.9375 -0.34375q-0.4375 -0.21875 -0.828125 -0.546875q-0.375 -0.3125 -0.65625 -0.734375l0.953125 -1.03125q0.4375 0.625 1.03125 1.0q0.59375 0.375 1.375 0.390625q0.640625 0.015625 1.15625 -0.171875q0.53125 -0.1875 0.921875 -0.546875q0.40625 -0.34375 0.671875 -0.859375q0.265625 -0.5 0.375 -1.09375l0.1875 -0.890625q-0.578125 0.59375 -1.28125 0.90625q-0.6875 0.296875 -1.53125 0.28125q-0.65625 -0.015625 -1.171875 -0.234375q-0.5 -0.234375 -0.875 -0.609375q-0.359375 -0.390625 -0.59375 -0.875q-0.234375 -0.5 -0.359375 -1.046875q-0.125 -0.5625 -0.15625 -1.140625q-0.03125 -0.578125 0.03125 -1.125l0.015625 -0.1875zm1.65625 0.1875q-0.046875 0.375 -0.046875 0.78125q0 0.40625 0.046875 0.796875q0.0625 0.390625 0.1875 0.75q0.140625 0.359375 0.375 0.640625q0.234375 0.265625 0.578125 0.4375q0.34375 0.15625 0.8125 0.171875q0.84375 0.015625 1.453125 -0.390625q0.625 -0.40625 1.078125 -1.078125l0.796875 -4.625q-0.265625 -0.65625 -0.765625 -1.03125q-0.484375 -0.375 -1.21875 -0.390625q-0.765625 -0.015625 -1.34375 0.3125q-0.578125 0.328125 -0.96875 0.875q-0.390625 0.546875 -0.625 1.21875q-0.234375 0.671875 -0.328125 1.34375l-0.03125 0.1875z" fill-rule="nonzero"></path><path fill="#000000" fill-opacity="0.0" d="m425.32285 136.0l0.6929016 -68.0" fill-rule="nonzero"></path><path stroke="#000000" stroke-width="1.0" stroke-linejoin="round" stroke-linecap="butt" d="m425.32285 136.0l0.6317444 -62.000313" fill-rule="evenodd"></path><path fill="#000000" stroke="#000000" stroke-width="1.0" stroke-linecap="butt" d="m427.60626 74.01652l-1.6054077 -4.5546875l-1.697876 4.5210266z" fill-rule="evenodd"></path></g></svg>

