<?xml version="1.0" standalone="no"?>
<!DOCTYPE svg PUBLIC "-//W3C//DTD SVG 20010904//EN"
 "http://www.w3.org/TR/2001/REC-SVG-20010904/DTD/svg10.dtd">
<svg version="1.0" xmlns="http://www.w3.org/2000/svg"
 width="1024.000000pt" height="1024.000000pt" viewBox="0 0 1024.000000 1024.000000"
 preserveAspectRatio="xMidYMid meet">
<metadata>
Created by potrace 1.14, written by Peter Selinger 2001-2017
</metadata>
<g transform="translate(0.000000,1024.000000) scale(0.100000,-0.100000)"
fill="#000000" stroke="none">
<path d="M0 5120 l0 -5120 5120 0 5120 0 0 5120 0 5120 -5120 0 -5120 0 0
-5120z m3290 2820 c137 -17 238 -47 355 -104 128 -63 224 -146 279 -239 30
-51 41 -84 62 -184 l4 -23 387 0 386 0 43 47 c33 36 50 46 73 46 46 0 71 -28
71 -79 0 -56 -47 -118 -115 -153 l-50 -26 -408 -3 c-355 -3 -410 -1 -429 12
-17 12 -18 16 -7 16 12 0 15 7 11 25 -3 20 -7 23 -18 14 -8 -6 -11 -15 -8 -20
3 -5 2 -8 -3 -7 -4 2 -41 -19 -81 -46 -118 -78 -277 -129 -447 -142 -77 -6
-92 -10 -65 -15 29 -5 24 -6 -25 -7 -42 0 -54 2 -40 8 17 7 15 9 -12 9 -18 1
-33 -2 -33 -7 0 -10 -142 -9 -159 2 -10 6 -16 6 -19 -2 -4 -14 -82 -16 -82 -2
0 6 -77 10 -212 10 -204 0 -249 -6 -150 -21 35 -6 24 -7 -46 -6 -50 1 -92 -1
-92 -5 0 -5 -9 -8 -20 -8 -17 0 -20 -7 -20 -48 0 -36 5 -54 20 -67 27 -24 25
-35 -6 -35 -15 0 -23 -4 -18 -11 3 -6 16 -9 28 -6 11 3 44 2 71 -2 l50 -7 -65
-8 c-307 -37 -506 -288 -469 -591 21 -166 83 -284 257 -484 l42 -49 -57 -35
c-54 -32 -278 -153 -628 -339 -82 -44 -157 -87 -166 -94 -8 -8 -19 -14 -23
-14 -5 0 -31 -12 -60 -26 l-51 -26 40 36 c39 35 30 38 -24 10 -21 -11 -26 -10
-37 4 -8 9 -14 24 -14 33 0 29 -28 29 -62 1 -25 -21 -30 -23 -25 -8 5 13 3 17
-7 13 -16 -7 -90 66 -79 78 5 4 3 5 -3 2 -14 -8 -36 16 -32 34 2 8 -2 13 -9
12 -7 -2 -18 7 -24 20 -7 12 -26 39 -42 59 -18 22 -27 43 -23 53 3 10 2 13 -4
10 -15 -9 -114 204 -145 310 -53 185 -68 309 -62 535 6 222 17 294 77 472 104
312 365 625 675 811 229 137 482 226 740 261 124 17 879 21 1005 6z m4660 -5
c195 -23 330 -55 501 -120 493 -188 873 -601 995 -1083 39 -154 57 -319 50
-460 -18 -373 -157 -715 -385 -943 -110 -110 -160 -143 -426 -287 -744 -401
-1280 -703 -1445 -815 -305 -205 -418 -349 -444 -564 -29 -240 163 -482 405
-512 40 -6 213 -7 383 -4 349 6 380 11 480 78 147 98 230 283 205 459 -24 171
-132 304 -289 355 -58 19 -87 21 -334 21 l-271 1 25 21 c30 24 275 169 560
330 746 422 973 547 984 541 63 -36 288 -218 345 -279 179 -192 300 -434 363
-726 30 -141 33 -468 5 -598 -45 -208 -155 -457 -274 -615 -138 -184 -345
-365 -541 -472 -101 -56 -305 -136 -412 -162 -163 -39 -246 -42 -945 -39 -659
3 -672 4 -775 27 -297 66 -573 209 -775 403 -407 389 -558 947 -400 1483 41
138 144 318 254 444 127 146 247 228 621 426 102 54 248 132 325 175 77 42
176 96 220 120 44 23 229 124 410 223 449 245 550 314 671 454 229 268 281
550 143 779 -58 96 -158 171 -294 220 -45 16 -102 19 -560 24 -490 6 -513 7
-585 29 -163 49 -291 142 -379 276 l-47 70 -414 5 c-455 5 -444 4 -513 69 -84
77 -74 191 16 191 27 0 41 -9 74 -45 l40 -45 392 0 391 0 0 33 c1 92 44 181
134 275 117 122 333 217 561 245 17 2 210 5 430 5 297 1 432 -2 525 -13z
m-4007 -722 c-7 -2 -19 -2 -25 0 -7 3 -2 5 12 5 14 0 19 -2 13 -5z m-363 -133
c-8 -5 -26 -9 -40 -9 -23 1 -23 2 5 9 43 11 52 11 35 0z m-97 -17 c-7 -2 -21
-2 -30 0 -10 3 -4 5 12 5 17 0 24 -2 18 -5z m177 -137 c0 -2 -7 -7 -16 -10 -8
-3 -12 -2 -9 4 6 10 25 14 25 6z m-227 -73 c-7 -2 -19 -2 -25 0 -7 3 -2 5 12
5 14 0 19 -2 13 -5z m1464 -865 c39 -22 71 -66 79 -110 4 -25 3 -29 -5 -18 -7
10 -11 11 -11 3 0 -7 -7 -10 -17 -6 -15 5 -16 3 -5 -8 14 -16 16 -43 2 -34 -6
4 -8 10 -6 14 3 4 -4 13 -15 19 -18 12 -19 11 -10 -7 13 -24 14 -64 2 -57 -5
3 -7 15 -4 26 3 11 0 20 -6 20 -6 0 -12 -8 -12 -17 -1 -17 -2 -17 -6 -1 -4 16
-6 16 -19 3 -12 -12 -42 -15 -132 -15 -149 -1 -408 -17 -447 -29 l-30 -8 27
-8 c14 -4 35 -2 46 4 26 14 55 14 47 1 -3 -5 -18 -11 -33 -12 -21 -1 -18 -3
13 -8 35 -7 33 -7 -15 -5 -45 3 -50 1 -30 -7 14 -5 62 -8 107 -6 44 2 76 0 70
-4 -7 -4 24 -9 68 -11 44 -2 10 -2 -75 1 -85 3 -162 4 -170 2 -8 -1 -45 -3
-83 -4 -37 0 -67 -2 -67 -2 0 -1 26 -11 59 -23 67 -24 144 -88 159 -131 13
-37 9 -37 -30 -5 -35 29 -35 29 -40 -8 -6 -46 -54 -84 -140 -113 -49 -16 -76
-30 -71 -37 4 -6 0 -8 -10 -4 -10 3 -17 4 -17 2 0 -7 71 -38 86 -38 7 0 11 -3
9 -7 -2 -4 18 -21 45 -39 50 -33 90 -78 90 -103 -1 -8 -4 -7 -11 4 -5 10 -18
22 -29 28 -17 9 -21 5 -31 -31 -15 -48 -71 -99 -110 -99 -15 0 -67 12 -115 26
-121 36 -208 42 -270 18 -56 -20 -137 -70 -175 -107 -15 -14 -76 -51 -135 -81
-60 -31 -138 -72 -174 -91 -36 -20 -162 -88 -280 -152 -118 -64 -244 -132
-280 -153 -36 -21 -108 -61 -160 -91 -80 -45 -192 -118 -210 -138 -22 -24 -81
-73 -75 -62 6 10 2 12 -14 7 -11 -3 -30 -9 -41 -12 -16 -4 -18 -8 -8 -24 10
-15 15 -17 27 -7 8 7 5 -3 -8 -20 -12 -18 -25 -33 -29 -33 -3 0 -1 5 6 12 17
17 15 29 -3 22 -8 -4 -15 -1 -15 6 0 6 5 8 12 4 6 -4 8 -3 5 2 -3 5 -20 11
-37 12 -24 2 -31 -1 -27 -12 3 -7 -2 -24 -10 -36 -14 -20 -17 -21 -25 -6 -6
10 -22 16 -43 16 -28 0 -35 4 -35 20 0 17 -7 20 -40 20 -22 0 -40 -4 -40 -10
0 -5 -18 -10 -40 -10 -22 0 -40 -4 -40 -10 0 -5 -18 -10 -40 -10 -29 0 -40 -4
-40 -15 0 -13 -26 -15 -162 -17 -90 -1 -126 -4 -80 -5 128 -6 99 -23 -38 -23
-100 0 -120 3 -120 15 0 11 -11 15 -40 15 -22 0 -40 -4 -40 -8 0 -5 -21 -5
-48 -1 -26 4 -98 5 -159 2 -111 -6 -113 -6 -113 15 0 21 -5 22 -80 22 -60 0
-80 -3 -78 -12 2 -7 -2 -13 -7 -13 -6 0 -8 5 -6 10 3 6 6 35 7 65 1 30 0 41
-3 24 -2 -18 -17 -43 -34 -58 -16 -14 -29 -33 -29 -42 0 -8 -4 -12 -10 -9 -5
3 -10 13 -10 21 0 8 4 13 9 10 10 -7 34 81 26 94 -3 5 -1 11 5 15 6 4 8 10 5
15 -3 5 1 14 8 22 7 7 13 15 14 18 0 6 44 78 80 133 14 20 30 37 34 37 5 0 9
6 9 13 0 6 7 21 16 32 13 17 16 18 25 5 9 -13 10 -12 5 2 -14 46 190 208 409
323 61 32 133 70 160 85 28 15 104 56 170 90 185 97 300 157 555 293 129 68
314 166 410 217 96 51 222 118 280 150 306 167 441 231 540 255 44 11 189 13
725 12 615 -2 673 -3 702 -19z m2793 14 l234 -7 -64 -68 c-114 -122 -169 -155
-880 -537 -74 -40 -157 -85 -185 -100 -646 -357 -634 -351 -702 -330 -95 31
-148 143 -112 237 14 37 74 98 113 115 30 13 29 13 -46 18 -64 5 -82 10 -104
30 -37 35 -54 73 -54 120 0 85 44 140 155 191 l60 28 -345 1 c-326 0 -347 1
-378 20 -70 43 -95 147 -52 217 30 50 53 57 200 63 204 8 1891 9 2160 2z
m-3067 -259 c-13 -2 -33 -2 -45 0 -13 2 -3 4 22 4 25 0 35 -2 23 -4z m170 -40
c-13 -2 -35 -2 -50 0 -16 2 -5 4 22 4 28 0 40 -2 28 -4z m-3499 -421 c3 -5 -1
-9 -9 -9 -8 0 -12 4 -9 9 3 4 7 8 9 8 2 0 6 -4 9 -8z m-21 -37 c8 -19 -12 -30
-26 -16 -9 9 -7 10 8 5 18 -7 18 -6 6 9 -7 9 -9 17 -3 17 5 0 12 -7 15 -15z
m2872 -538 c105 -57 173 -107 266 -195 75 -70 166 -188 161 -209 -2 -7 1 -12
7 -11 11 3 84 -112 76 -120 -3 -3 -5 1 -5 8 0 7 -2 11 -5 8 -9 -9 6 -38 16
-32 6 3 7 -5 3 -20 -5 -21 0 -32 21 -52 20 -18 24 -28 16 -33 -6 -4 -9 -15 -5
-24 3 -9 2 -17 -4 -17 -17 0 -53 80 -46 103 6 22 6 22 -10 2 -8 -11 -16 -14
-16 -7 0 17 -137 17 -142 0 -3 -9 -72 -12 -278 -12 -206 0 -275 3 -278 12 -2
7 -21 12 -43 12 -21 0 -39 5 -39 10 0 6 -31 10 -73 10 -40 0 -78 5 -83 10 -6
6 -63 13 -127 17 -88 5 -117 9 -117 20 0 10 -20 13 -80 13 -73 0 -80 2 -80 20
0 17 7 20 43 22 l42 1 -42 4 c-24 2 -43 8 -43 14 0 5 -18 9 -39 9 -22 0 -43 5
-46 10 -3 6 -14 10 -23 9 -12 0 -10 -3 6 -10 30 -11 23 -34 -9 -33 -13 1 -30
-6 -37 -15 -8 -9 -11 -10 -7 -3 3 6 0 12 -7 13 -7 0 -1 5 15 11 17 6 26 16 25
26 -2 9 7 18 22 23 14 4 21 7 15 8 -5 1 10 12 35 24 45 24 160 87 338 186 50
28 95 51 99 51 3 0 14 6 22 14 9 7 45 29 81 49 36 19 106 58 155 86 60 33 97
48 110 44 11 -3 61 -28 110 -56z m-3414 -454 c-12 -20 -14 -14 -5 12 4 9 9 14
11 11 3 -2 0 -13 -6 -23z m1404 -73 c3 -5 2 -17 -3 -26 -8 -14 -10 -14 -21 0
-13 15 -8 36 9 36 5 0 12 -4 15 -10z m1383 -37 c-5 -26 -38 -29 -38 -4 0 15 6
21 21 21 14 0 19 -5 17 -17z m-1415 -35 c-9 -20 -10 -20 -10 10 0 22 4 29 10
23 7 -7 7 -18 0 -33z m-1416 -40 c-3 -8 -6 -5 -6 6 -1 11 2 17 5 13 3 -3 4
-12 1 -19z m3976 -68 c-6 -7 -23 23 -23 40 0 8 6 4 13 -10 8 -14 12 -27 10
-30z"/>
<path d="M3139 7642 c-145 -75 -127 -281 28 -333 89 -29 208 36 232 129 22 81
-24 177 -103 213 -57 26 -95 24 -157 -9z m136 -87 c52 -51 18 -135 -55 -135
-22 0 -43 7 -53 18 -71 79 33 192 108 117z"/>
<path d="M2453 7063 c9 -2 23 -2 30 0 6 3 -1 5 -18 5 -16 0 -22 -2 -12 -5z"/>
<path d="M2210 6970 c0 -5 9 -10 21 -10 11 0 17 5 14 10 -3 6 -13 10 -21 10
-8 0 -14 -4 -14 -10z"/>
<path d="M2458 6853 c7 -3 16 -2 19 1 4 3 -2 6 -13 5 -11 0 -14 -3 -6 -6z"/>
<path d="M2398 6843 c7 -3 16 -2 19 1 4 3 -2 6 -13 5 -11 0 -14 -3 -6 -6z"/>
<path d="M1175 5310 c10 -11 20 -18 23 -15 7 6 -18 35 -31 35 -5 0 -2 -9 8
-20z"/>
<path d="M6982 7657 c-68 -26 -122 -105 -122 -178 1 -39 34 -102 73 -136 63
-55 157 -54 233 3 91 68 83 224 -15 289 -45 30 -121 40 -169 22z m110 -91 c42
-31 44 -103 5 -131 -47 -33 -107 -13 -128 41 -25 67 66 134 123 90z"/>
<path d="M4233 5733 c9 -2 23 -2 30 0 6 3 -1 5 -18 5 -16 0 -22 -2 -12 -5z"/>
<path d="M832 4437 c-8 -10 -6 -13 7 -13 11 0 17 6 14 13 -3 7 -6 13 -8 13 -1
0 -7 -6 -13 -13z"/>
<path d="M2270 4311 c-8 -6 -19 -7 -25 -4 -5 3 -4 0 3 -8 10 -11 15 -10 29 4
19 19 16 22 -7 8z"/>
<path d="M4590 4170 c0 -5 5 -10 11 -10 5 0 7 5 4 10 -3 6 -8 10 -11 10 -2 0
-4 -4 -4 -10z"/>
<path d="M4650 4096 c0 -4 7 -14 15 -22 8 -9 15 -11 15 -6 0 5 -7 15 -15 22
-8 7 -15 9 -15 6z"/>
</g>
</svg>
